<svg xmlns="http://www.w3.org/2000/svg" xmlns:xlink="http://www.w3.org/1999/xlink" viewBox="0 0 175.75 283.46"><defs><style>.cls-1{fill:url(#linear-gradient);}.cls-2{fill:#ec008c;}.cls-3{fill:#9e1f63;}</style><linearGradient id="linear-gradient" x1="-37.6" y1="214.18" x2="213.35" y2="69.29" gradientUnits="userSpaceOnUse"><stop offset="0.5" stop-color="#414042"/><stop offset="0.68" stop-color="#48484a"/></linearGradient></defs><title>A4</title><g id="Layer_2" data-name="Layer 2"><g id="Layer_1-2" data-name="Layer 1"><rect class="cls-1" width="175.75" height="283.46" rx="5.69" ry="5.69"/><path class="cls-2" d="M89.33,81.63h2.21L91,83,55,170.85l57.05.35V112.29h2V171.2h13.07v2.07H114.12v29.8h-2v-29.8l-58.58-.34H52l.5-1.39L89,82.32Z"/><polygon class="cls-3" points="15.23 6.65 18.84 6.65 10.51 20.76 8.71 23.74 5.14 23.74 15.23 6.65"/><polygon class="cls-3" points="18.1 40.83 14.48 40.83 22.82 26.73 24.61 23.74 28.18 23.74 18.1 40.83"/><polygon class="cls-2" points="14.6 40.83 18.09 40.83 10.51 26.73 8.71 23.74 5.14 23.74 14.6 40.83"/><polygon class="cls-2" points="18.73 6.65 15.24 6.65 22.82 20.76 24.61 23.74 28.18 23.74 18.73 6.65"/><polygon class="cls-3" points="157.65 242.63 161.27 242.63 152.93 256.74 151.13 259.72 147.57 259.72 157.65 242.63"/><polygon class="cls-3" points="160.52 276.81 156.9 276.81 165.24 262.71 167.04 259.72 170.61 259.72 160.52 276.81"/><polygon class="cls-2" points="157.02 276.81 160.51 276.81 152.93 262.71 151.13 259.72 147.57 259.72 157.02 276.81"/><polygon class="cls-2" points="161.15 242.63 157.66 242.63 165.24 256.74 167.04 259.72 170.61 259.72 161.15 242.63"/></g></g></svg>