<svg xmlns="http://www.w3.org/2000/svg" xmlns:xlink="http://www.w3.org/1999/xlink" viewBox="0 0 175.75 283.46"><defs><style>.cls-1{fill:url(#linear-gradient);}.cls-2{fill:#ec008c;}.cls-3{fill:#9e1f63;}</style><linearGradient id="linear-gradient" x1="-37.6" y1="214.18" x2="213.35" y2="69.29" gradientUnits="userSpaceOnUse"><stop offset="0.5" stop-color="#414042"/><stop offset="0.68" stop-color="#48484a"/></linearGradient></defs><title>A5</title><g id="Layer_2" data-name="Layer 2"><g id="Layer_1-2" data-name="Layer 1"><rect class="cls-1" width="175.75" height="283.46" rx="5.69" ry="5.69"/><path class="cls-2" d="M120.73,81.44v2.08H74.21L62.67,127a42.82,42.82,0,0,1,3-3.47Q76.93,113,91.53,113q13.92,0,24.62,10.91,12.73,13.51,12.73,34,0,17.66-10,30.66-11,14.38-27.33,14.38A35,35,0,0,1,70,195.43q-11.38-8.84-13.42-21.83l-.17-1.21h2l.17.86a32.4,32.4,0,0,0,7.13,15.25q10.19,12.3,25.81,12.3,13.06,0,23.09-10.4,12.22-13,12.23-32.56,0-16.47-9.17-28.76-10.53-14-26.15-14a35,35,0,0,0-16.64,4.33q-11,6.06-14.43,15.41l-.17.87H57.91l.51-1.39L72.34,82.13l.17-.69h48.22Z"/><polygon class="cls-3" points="12.74 6.56 16.36 6.56 8.02 20.66 6.22 23.65 2.65 23.65 12.74 6.56"/><polygon class="cls-3" points="15.61 40.74 11.99 40.74 20.33 26.63 22.13 23.65 25.69 23.65 15.61 40.74"/><polygon class="cls-2" points="12.11 40.74 15.6 40.74 8.02 26.63 6.22 23.65 2.65 23.65 12.11 40.74"/><polygon class="cls-2" points="16.24 6.56 12.75 6.56 20.33 20.66 22.13 23.65 25.69 23.65 16.24 6.56"/><polygon class="cls-3" points="155.16 242.53 158.78 242.53 150.44 256.64 148.65 259.62 145.08 259.62 155.16 242.53"/><polygon class="cls-3" points="158.03 276.71 154.42 276.71 162.76 262.61 164.55 259.62 168.12 259.62 158.03 276.71"/><polygon class="cls-2" points="154.53 276.71 158.03 276.71 150.44 262.61 148.65 259.62 145.08 259.62 154.53 276.71"/><polygon class="cls-2" points="158.66 242.53 155.18 242.53 162.76 256.64 164.55 259.62 168.12 259.62 158.66 242.53"/></g></g></svg>