<svg xmlns="http://www.w3.org/2000/svg" xmlns:xlink="http://www.w3.org/1999/xlink" viewBox="0 0 175.75 283.46"><defs><style>.cls-1{fill:url(#linear-gradient);}.cls-2{fill:#ec008c;}.cls-3{fill:#9e1f63;}</style><linearGradient id="linear-gradient" x1="-37.6" y1="214.18" x2="213.35" y2="69.29" gradientUnits="userSpaceOnUse"><stop offset="0.5" stop-color="#414042"/><stop offset="0.68" stop-color="#48484a"/></linearGradient></defs><title>A6</title><g id="Layer_2" data-name="Layer 2"><g id="Layer_1-2" data-name="Layer 1"><rect class="cls-1" width="175.75" height="283.46" rx="5.69" ry="5.69"/><path class="cls-2" d="M91.08,80.92v2.25l-.68.35q-8,3.28-15.79,14.38Q60.69,118,57.12,147.27a47.85,47.85,0,0,1,6.11-10.4q10.71-13.34,26.83-13.34a33.31,33.31,0,0,1,23.43,9.53q12.39,11.79,12.4,30a41.65,41.65,0,0,1-9,26.51q-10.69,13.34-26.83,13.34A33.46,33.46,0,0,1,67.31,194q-12.57-11.59-13.07-30v-1.21a122.15,122.15,0,0,1,13.58-57.17q10-19.39,21.9-24.25ZM64.42,187.8q10.18,13,25.64,13a30.9,30.9,0,0,0,21.9-9q11.88-11.26,11.89-28.76a38.87,38.87,0,0,0-8.15-24.42q-10.19-13-25.64-13a31.24,31.24,0,0,0-21.9,8.84Q56.27,145.72,56.27,163A41.24,41.24,0,0,0,64.42,187.8Z"/><polygon class="cls-3" points="14.71 6.75 18.33 6.75 9.99 20.86 8.2 23.84 4.63 23.84 14.71 6.75"/><polygon class="cls-3" points="17.58 40.93 13.97 40.93 22.3 26.82 24.1 23.84 27.67 23.84 17.58 40.93"/><polygon class="cls-2" points="14.08 40.93 17.57 40.93 9.99 26.82 8.2 23.84 4.63 23.84 14.08 40.93"/><polygon class="cls-2" points="18.21 6.75 14.72 6.75 22.3 20.86 24.1 23.84 27.67 23.84 18.21 6.75"/><polygon class="cls-3" points="157.14 242.73 160.76 242.73 152.42 256.83 150.62 259.82 147.06 259.82 157.14 242.73"/><polygon class="cls-3" points="160.01 276.91 156.39 276.91 164.73 262.8 166.53 259.82 170.09 259.82 160.01 276.91"/><polygon class="cls-2" points="156.51 276.91 160 276.91 152.42 262.8 150.62 259.82 147.06 259.82 156.51 276.91"/><polygon class="cls-2" points="160.64 242.73 157.15 242.73 164.73 256.83 166.53 259.82 170.09 259.82 160.64 242.73"/></g></g></svg>