<svg xmlns="http://www.w3.org/2000/svg" xmlns:xlink="http://www.w3.org/1999/xlink" viewBox="0 0 175.75 283.46"><defs><style>.cls-1{fill:url(#linear-gradient);}.cls-2{fill:#ec008c;}.cls-3{fill:#9e1f63;}</style><linearGradient id="linear-gradient" x1="-37.6" y1="214.18" x2="213.35" y2="69.29" gradientUnits="userSpaceOnUse"><stop offset="0.5" stop-color="#414042"/><stop offset="0.68" stop-color="#48484a"/></linearGradient></defs><title>A8</title><g id="Layer_2" data-name="Layer 2"><g id="Layer_1-2" data-name="Layer 1"><rect class="cls-1" width="175.75" height="283.46" rx="5.69" ry="5.69"/><path class="cls-2" d="M60.8,150.56a35.61,35.61,0,0,1,22.58-17.32,35.55,35.55,0,0,1-10.86-4.86q-11.2-8-11.21-20.26A24.07,24.07,0,0,1,67.59,92q9.18-10.58,24.79-10.57a33.13,33.13,0,0,1,19.36,5.89q11.37,8,11.37,20.79a22.94,22.94,0,0,1-2.71,10.74q-5.78,10.9-19.19,14.55A37,37,0,0,1,116,141,34.29,34.29,0,0,1,128,167.71a33.41,33.41,0,0,1-8.66,22.69,34.4,34.4,0,0,1-27.17,12.3A35.31,35.31,0,0,1,68.61,194a33.06,33.06,0,0,1-12.22-26.33A35.52,35.52,0,0,1,60.8,150.56Zm31.58-16.11H89.84a32.93,32.93,0,0,0-19.53,7.79,32.94,32.94,0,0,0-4.25,46.43q10,12,26.15,12A33.78,33.78,0,0,0,114,193a31.25,31.25,0,0,0,12-25.29,32.87,32.87,0,0,0-6.62-19.92,31.86,31.86,0,0,0-24.45-13.34ZM68.1,121.28q7.82,10.05,21.74,10.92h4.92a30.57,30.57,0,0,0,15.45-5.2q10.86-7.27,10.87-18.88a22.6,22.6,0,0,0-5.61-14.73q-8.66-9.87-23.09-9.87a31.51,31.51,0,0,0-18,5.37q-11,7.27-11,19.23A20.88,20.88,0,0,0,68.1,121.28Z"/><polygon class="cls-3" points="14.23 6.33 17.84 6.33 9.51 20.43 7.71 23.42 4.14 23.42 14.23 6.33"/><polygon class="cls-3" points="17.1 40.51 13.48 40.51 21.82 26.4 23.61 23.42 27.18 23.42 17.1 40.51"/><polygon class="cls-2" points="13.6 40.51 17.09 40.51 9.51 26.4 7.71 23.42 4.14 23.42 13.6 40.51"/><polygon class="cls-2" points="17.73 6.33 14.24 6.33 21.82 20.43 23.61 23.42 27.18 23.42 17.73 6.33"/><polygon class="cls-3" points="156.65 242.3 160.27 242.3 151.93 256.41 150.13 259.39 146.57 259.39 156.65 242.3"/><polygon class="cls-3" points="159.52 276.49 155.9 276.49 164.24 262.38 166.04 259.39 169.61 259.39 159.52 276.49"/><polygon class="cls-2" points="156.02 276.49 159.51 276.49 151.93 262.38 150.13 259.39 146.57 259.39 156.02 276.49"/><polygon class="cls-2" points="160.15 242.3 156.66 242.3 164.24 256.41 166.04 259.39 169.61 259.39 160.15 242.3"/></g></g></svg>