<svg xmlns="http://www.w3.org/2000/svg" xmlns:xlink="http://www.w3.org/1999/xlink" viewBox="0 0 175.75 283.46"><defs><style>.cls-1{fill:url(#linear-gradient);}.cls-2{fill:#ec008c;}.cls-3{fill:#9e1f63;}</style><linearGradient id="linear-gradient" x1="-37.6" y1="214.18" x2="213.35" y2="69.29" gradientUnits="userSpaceOnUse"><stop offset="0.5" stop-color="#414042"/><stop offset="0.68" stop-color="#48484a"/></linearGradient></defs><title>AA</title><g id="Layer_2" data-name="Layer 2"><g id="Layer_1-2" data-name="Layer 1"><rect class="cls-1" width="175.75" height="283.46" rx="5.69" ry="5.69"/><path class="cls-2" d="M34.07,111.18,49.69,82.72l.17-.52h1.7V203.46h-2V87.22L36.3,111.29Z"/><path class="cls-2" d="M79.57,98.83Q90.1,82,104.7,82q12.9.18,22.92,14.38,12.57,18.19,12.57,46.26,0,26-11,44-10.19,16.8-24.45,16.8-13.24-.17-23.43-14.38Q68.54,170.9,68.54,142.66,68.54,116.85,79.57,98.83Zm1,85.58q10,17,24.11,17,12.22-.16,21.74-14,11.72-17.67,11.71-44.69,0-24.25-10-41.58-9.67-17-23.43-17Q92,84.28,82.29,98.31,70.58,115.8,70.58,142.66,70.58,166.92,80.59,184.41Z"/><polygon class="cls-3" points="14.71 6.87 18.33 6.87 9.99 20.97 8.2 23.95 4.63 23.95 14.71 6.87"/><polygon class="cls-3" points="17.58 41.05 13.97 41.05 22.3 26.94 24.1 23.95 27.67 23.95 17.58 41.05"/><polygon class="cls-2" points="14.08 41.05 17.57 41.05 9.99 26.94 8.2 23.95 4.63 23.95 14.08 41.05"/><polygon class="cls-2" points="18.21 6.87 14.72 6.87 22.3 20.97 24.1 23.95 27.67 23.95 18.21 6.87"/><polygon class="cls-3" points="157.14 242.84 160.76 242.84 152.42 256.95 150.62 259.93 147.06 259.93 157.14 242.84"/><polygon class="cls-3" points="160.01 277.02 156.39 277.02 164.73 262.92 166.53 259.93 170.09 259.93 160.01 277.02"/><polygon class="cls-2" points="156.51 277.02 160 277.02 152.42 262.92 150.62 259.93 147.06 259.93 156.51 277.02"/><polygon class="cls-2" points="160.64 242.84 157.15 242.84 164.73 256.95 166.53 259.93 170.09 259.93 160.64 242.84"/></g></g></svg>