<svg xmlns="http://www.w3.org/2000/svg" xmlns:xlink="http://www.w3.org/1999/xlink" viewBox="0 0 175.75 283.46"><defs><style>.cls-1{fill:url(#linear-gradient);}.cls-2{fill:#ec008c;}.cls-3{fill:#9e1f63;}</style><linearGradient id="linear-gradient" x1="-37.6" y1="214.18" x2="213.35" y2="69.29" gradientUnits="userSpaceOnUse"><stop offset="0.5" stop-color="#414042"/><stop offset="0.68" stop-color="#48484a"/></linearGradient></defs><title>AC</title><g id="Layer_2" data-name="Layer 2"><g id="Layer_1-2" data-name="Layer 1"><rect class="cls-1" width="175.75" height="283.46" rx="5.69" ry="5.69"/><path class="cls-2" d="M53,93.19Q67.93,76.74,88.3,76.74,109,76.91,124,93.54q15.29,17.33,15.28,42.1,0,23.21-13.75,40.36l13.41,15.59,2.38,2.95h-4.59l-.5-.52-13.08-15.25q-14.77,15.6-34.81,15.77-20.53-.18-35.65-16.81-15.28-17.31-15.28-42.09Q37.53,110.86,53,93.19ZM54.86,175q13.92,16.11,33.44,16.11,18.67-.16,32.43-14.9l-9.16-10.74-2.38-2.94h4.58l.51.52,8.83,10.39q12.57-15.93,12.74-37.76,0-22.87-13.93-39.16T88.3,80.2q-19,.18-32.94,15.42-14.59,16.45-14.6,40Q40.76,158.68,54.86,175Z"/><polygon class="cls-3" points="14.23 6.44 17.84 6.44 9.51 20.55 7.71 23.53 4.14 23.53 14.23 6.44"/><polygon class="cls-3" points="17.1 40.62 13.48 40.62 21.82 26.52 23.61 23.53 27.18 23.53 17.1 40.62"/><polygon class="cls-2" points="13.6 40.62 17.09 40.62 9.51 26.52 7.71 23.53 4.14 23.53 13.6 40.62"/><polygon class="cls-2" points="17.73 6.44 14.24 6.44 21.82 20.55 23.61 23.53 27.18 23.53 17.73 6.44"/><polygon class="cls-3" points="156.65 242.42 160.27 242.42 151.93 256.52 150.13 259.51 146.57 259.51 156.65 242.42"/><polygon class="cls-3" points="159.52 276.6 155.9 276.6 164.24 262.49 166.04 259.51 169.61 259.51 159.52 276.6"/><polygon class="cls-2" points="156.02 276.6 159.51 276.6 151.93 262.49 150.13 259.51 146.57 259.51 156.02 276.6"/><polygon class="cls-2" points="160.15 242.42 156.66 242.42 164.24 256.52 166.04 259.51 169.61 259.51 160.15 242.42"/></g></g></svg>