<svg xmlns="http://www.w3.org/2000/svg" xmlns:xlink="http://www.w3.org/1999/xlink" viewBox="0 0 175.75 283.46"><defs><style>.cls-1{fill:url(#linear-gradient);}.cls-2{fill:#ec008c;}.cls-3{fill:#9e1f63;}</style><linearGradient id="linear-gradient" x1="-37.6" y1="214.18" x2="213.35" y2="69.29" gradientUnits="userSpaceOnUse"><stop offset="0.5" stop-color="#414042"/><stop offset="0.68" stop-color="#48484a"/></linearGradient></defs><title>AF</title><g id="Layer_2" data-name="Layer 2"><g id="Layer_1-2" data-name="Layer 1"><rect class="cls-1" width="175.75" height="283.46" rx="5.69" ry="5.69"/><path class="cls-2" d="M58.19,113.31h-2v-1q0-10.74,7.81-19.4Q74.83,81.44,92,81.44a38.63,38.63,0,0,1,23.43,7.45q12.39,9.18,12.4,23.38a33,33,0,0,1-4.42,16.11q-6.28,11.26-25.64,26.16-19.52,15.26-21.9,17.33Q58.2,187.11,58.19,200.8h69.62v2.08H56.16v-1a30.77,30.77,0,0,1,4.24-15.07q5.77-10.4,24.62-25,19.19-15.07,22.24-17.84,18.51-16.45,18.51-31.71a26.1,26.1,0,0,0-7.13-17.84Q108.45,83.51,92,83.52a36.88,36.88,0,0,0-21.9,6.75q-11.89,8.67-11.89,22Z"/><polygon class="cls-3" points="15.5 6.46 19.12 6.46 10.78 20.57 8.98 23.55 5.42 23.55 15.5 6.46"/><polygon class="cls-3" points="18.37 40.64 14.76 40.64 23.09 26.53 24.89 23.55 28.46 23.55 18.37 40.64"/><polygon class="cls-2" points="14.87 40.64 18.36 40.64 10.78 26.53 8.98 23.55 5.42 23.55 14.87 40.64"/><polygon class="cls-2" points="19 6.46 15.51 6.46 23.09 20.57 24.89 23.55 28.46 23.55 19 6.46"/><polygon class="cls-3" points="157.93 242.44 161.54 242.44 153.21 256.54 151.41 259.53 147.84 259.53 157.93 242.44"/><polygon class="cls-3" points="160.8 276.62 157.18 276.62 165.52 262.51 167.31 259.53 170.88 259.53 160.8 276.62"/><polygon class="cls-2" points="157.3 276.62 160.79 276.62 153.21 262.51 151.41 259.53 147.84 259.53 157.3 276.62"/><polygon class="cls-2" points="161.43 242.44 157.94 242.44 165.52 256.54 167.31 259.53 170.88 259.53 161.43 242.44"/></g></g></svg>