<svg xmlns="http://www.w3.org/2000/svg" xmlns:xlink="http://www.w3.org/1999/xlink" viewBox="0 0 175.75 283.46"><defs><style>.cls-1{font-size:173.24px;fill:#fff;font-family:Adam-Medium, Adam;}.cls-2{fill:url(#linear-gradient);}.cls-3{fill:#6cc9cb;}.cls-4{fill:#056f77;}</style><linearGradient id="linear-gradient" x1="-37.6" y1="214.18" x2="213.35" y2="69.29" gradientUnits="userSpaceOnUse"><stop offset="0.5" stop-color="#414042"/><stop offset="0.68" stop-color="#48484a"/></linearGradient></defs><title>B4</title><g id="Layer_2" data-name="Layer 2"><g id="Layer_1-2" data-name="Layer 1"><text class="cls-1" transform="translate(43.93 202.7)">3</text><rect class="cls-2" width="175.75" height="283.46" rx="5.69" ry="5.69"/><path class="cls-3" d="M82.66,81.44h2.21l-.51,1.38-36,87.83,57.05.35V112.1h2V171h13.08v2.08H107.45v29.8h-2v-29.8l-58.58-.35H45.31l.51-1.38,36.5-89.22Z"/><path class="cls-4" d="M28.37,19.73a6.82,6.82,0,0,1-9.64-9.64l-1-1A8.19,8.19,0,0,0,29.34,20.7Z"/><path class="cls-3" d="M28.37,19.73a6.82,6.82,0,0,0-9.64-9.64l-1-1A8.19,8.19,0,0,1,29.34,20.7Z"/><path class="cls-4" d="M19,27.14a6.82,6.82,0,0,1-9.65,9.64l-1,1A8.18,8.18,0,0,0,20,26.17Z"/><path class="cls-3" d="M19,27.14a6.82,6.82,0,0,0-9.65,9.64l-1,1A8.18,8.18,0,1,1,20,26.17Z"/><path class="cls-4" d="M37.76,36.78a6.82,6.82,0,0,1-9.65-9.64l-1-1A8.18,8.18,0,0,0,38.72,37.75Z"/><path class="cls-3" d="M37.76,36.78a6.82,6.82,0,1,0-9.65-9.64l-1-1A8.18,8.18,0,1,1,38.72,37.75Z"/><path class="cls-4" d="M157,256.33a6.82,6.82,0,1,1-9.64-9.65l-1-1A8.18,8.18,0,0,0,158,257.29Z"/><path class="cls-3" d="M157,256.33a6.82,6.82,0,0,0-9.64-9.65l-1-1A8.18,8.18,0,0,1,158,257.29Z"/><path class="cls-4" d="M147.64,263.74a6.82,6.82,0,0,1-9.65,9.64l-1,1a8.18,8.18,0,0,0,11.57-11.57Z"/><path class="cls-3" d="M147.64,263.74a6.82,6.82,0,0,0-9.65,9.64l-1,1a8.18,8.18,0,1,1,11.57-11.57Z"/><path class="cls-4" d="M166.4,273.38a6.82,6.82,0,1,1-9.64-9.64l-1-1a8.18,8.18,0,0,0,11.58,11.57Z"/><path class="cls-3" d="M166.4,273.38a6.82,6.82,0,0,0-9.64-9.64l-1-1a8.18,8.18,0,1,1,11.58,11.57Z"/></g></g></svg>