<svg xmlns="http://www.w3.org/2000/svg" xmlns:xlink="http://www.w3.org/1999/xlink" viewBox="0 0 175.75 283.46"><defs><style>.cls-1{fill:url(#linear-gradient);}.cls-2{fill:#6cc9cb;}.cls-3{fill:#056f77;}</style><linearGradient id="linear-gradient" x1="-37.6" y1="214.18" x2="213.35" y2="69.29" gradientUnits="userSpaceOnUse"><stop offset="0.5" stop-color="#414042"/><stop offset="0.68" stop-color="#48484a"/></linearGradient></defs><title>B8</title><g id="Layer_2" data-name="Layer 2"><g id="Layer_1-2" data-name="Layer 1"><rect class="cls-1" width="175.75" height="283.46" rx="5.69" ry="5.69"/><path class="cls-2" d="M53.63,150.56a35.59,35.59,0,0,1,22.58-17.32,35.55,35.55,0,0,1-10.86-4.86q-11.2-8-11.21-20.26A24.07,24.07,0,0,1,60.42,92q9.17-10.58,24.79-10.57a33.13,33.13,0,0,1,19.36,5.89q11.37,8,11.37,20.79a22.94,22.94,0,0,1-2.71,10.74q-5.78,10.9-19.19,14.55A37,37,0,0,1,108.81,141a34.29,34.29,0,0,1,12.06,26.68,33.41,33.41,0,0,1-8.66,22.69A34.4,34.4,0,0,1,85,202.7,35.31,35.31,0,0,1,61.44,194a33.06,33.06,0,0,1-12.22-26.33A35.52,35.52,0,0,1,53.63,150.56Zm31.58-16.11H82.66a32.92,32.92,0,0,0-19.52,7.79,32.94,32.94,0,0,0-4.25,46.43q10,12,26.15,12A33.73,33.73,0,0,0,106.77,193a31.23,31.23,0,0,0,12.06-25.29,32.87,32.87,0,0,0-6.62-19.92,31.86,31.86,0,0,0-24.45-13.34ZM60.93,121.28q7.82,10.05,21.73,10.92h4.93A30.57,30.57,0,0,0,103,127q10.86-7.27,10.87-18.88a22.6,22.6,0,0,0-5.61-14.73q-8.65-9.87-23.09-9.87a31.51,31.51,0,0,0-18,5.37q-11,7.27-11,19.23A20.88,20.88,0,0,0,60.93,121.28Z"/><path class="cls-3" d="M28.37,19.73a6.82,6.82,0,0,1-9.64-9.64l-1-1A8.19,8.19,0,0,0,29.34,20.7Z"/><path class="cls-2" d="M28.37,19.73a6.82,6.82,0,0,0-9.64-9.64l-1-1A8.19,8.19,0,0,1,29.34,20.7Z"/><path class="cls-3" d="M19,27.14a6.82,6.82,0,0,1-9.65,9.64l-1,1A8.18,8.18,0,0,0,20,26.17Z"/><path class="cls-2" d="M19,27.14a6.82,6.82,0,0,0-9.65,9.64l-1,1A8.18,8.18,0,1,1,20,26.17Z"/><path class="cls-3" d="M37.76,36.78a6.82,6.82,0,0,1-9.65-9.64l-1-1A8.18,8.18,0,0,0,38.72,37.75Z"/><path class="cls-2" d="M37.76,36.78a6.82,6.82,0,1,0-9.65-9.64l-1-1A8.18,8.18,0,1,1,38.72,37.75Z"/><path class="cls-3" d="M157,256.33a6.82,6.82,0,1,1-9.64-9.65l-1-1A8.18,8.18,0,0,0,158,257.29Z"/><path class="cls-2" d="M157,256.33a6.82,6.82,0,0,0-9.64-9.65l-1-1A8.18,8.18,0,0,1,158,257.29Z"/><path class="cls-3" d="M147.64,263.74a6.82,6.82,0,0,1-9.65,9.64l-1,1a8.18,8.18,0,0,0,11.57-11.57Z"/><path class="cls-2" d="M147.64,263.74a6.82,6.82,0,0,0-9.65,9.64l-1,1a8.18,8.18,0,1,1,11.57-11.57Z"/><path class="cls-3" d="M166.4,273.38a6.82,6.82,0,1,1-9.64-9.64l-1-1a8.18,8.18,0,0,0,11.58,11.57Z"/><path class="cls-2" d="M166.4,273.38a6.82,6.82,0,0,0-9.64-9.64l-1-1a8.18,8.18,0,1,1,11.58,11.57Z"/></g></g></svg>