<svg xmlns="http://www.w3.org/2000/svg" xmlns:xlink="http://www.w3.org/1999/xlink" viewBox="0 0 175.75 283.46"><defs><style>.cls-1{fill:url(#linear-gradient);}.cls-2{fill:#6cc9cb;}.cls-3{fill:#056f77;}</style><linearGradient id="linear-gradient" x1="-37.6" y1="214.18" x2="213.35" y2="69.29" gradientUnits="userSpaceOnUse"><stop offset="0.5" stop-color="#414042"/><stop offset="0.68" stop-color="#48484a"/></linearGradient></defs><title>B9</title><g id="Layer_2" data-name="Layer 2"><g id="Layer_1-2" data-name="Layer 1"><rect class="cls-1" width="175.75" height="283.46" rx="5.69" ry="5.69"/><path class="cls-2" d="M123.7,120.16v.7a42.3,42.3,0,0,1-2.21,12.47q-6.61,23.91-32.77,68.6l-.34.52H86l1-1.56q20.19-34.81,28.52-56.3a9.78,9.78,0,0,0-.85,1q-10.53,13-26.66,13a33.86,33.86,0,0,1-23.6-9.35Q52.05,137.66,52.05,120a40.21,40.21,0,0,1,8.83-25.81Q71.58,81,87.87,81a33.5,33.5,0,0,1,22.76,8.84q12.56,11.09,13.07,29.1v1.21ZM113.51,96.08q-10-13-25.64-13A31.24,31.24,0,0,0,66,91.93Q54.09,102.84,54.09,120a37.64,37.64,0,0,0,8.15,23.91q10,12.65,25.8,12.64a31.89,31.89,0,0,0,14.1-3.29q13.06-6.58,17.65-21.31a49.27,49.27,0,0,0,1.87-11.08V120A39,39,0,0,0,113.51,96.08Z"/><path class="cls-3" d="M27.52,20.16a6.82,6.82,0,0,1-9.64-9.64l-1-1A8.19,8.19,0,0,0,28.49,21.13Z"/><path class="cls-2" d="M27.52,20.16a6.82,6.82,0,0,0-9.64-9.64l-1-1A8.19,8.19,0,0,1,28.49,21.13Z"/><path class="cls-3" d="M18.14,27.57A6.82,6.82,0,0,1,8.5,37.21l-1,1A8.19,8.19,0,0,0,19.11,26.6Z"/><path class="cls-2" d="M18.14,27.57A6.82,6.82,0,0,0,8.5,37.21l-1,1A8.19,8.19,0,0,1,19.11,26.6Z"/><path class="cls-3" d="M36.91,37.21a6.82,6.82,0,0,1-9.64-9.64l-1-1A8.18,8.18,0,0,0,37.87,38.18Z"/><path class="cls-2" d="M36.91,37.21a6.82,6.82,0,0,0-9.64-9.64l-1-1A8.18,8.18,0,0,1,37.87,38.18Z"/><path class="cls-3" d="M156.17,256.76a6.82,6.82,0,0,1-9.64-9.65l-1-1a8.18,8.18,0,0,0,11.58,11.57Z"/><path class="cls-2" d="M156.17,256.76a6.82,6.82,0,1,0-9.64-9.65l-1-1a8.18,8.18,0,1,1,11.58,11.57Z"/><path class="cls-3" d="M146.79,264.16a6.82,6.82,0,0,1-9.65,9.65l-1,1a8.18,8.18,0,1,0,11.57-11.57Z"/><path class="cls-2" d="M146.79,264.16a6.82,6.82,0,1,0-9.65,9.65l-1,1a8.18,8.18,0,0,1,11.57-11.57Z"/><path class="cls-3" d="M165.56,273.81a6.82,6.82,0,0,1-9.65-9.65l-1-1a8.18,8.18,0,1,0,11.57,11.57Z"/><path class="cls-2" d="M165.56,273.81a6.82,6.82,0,1,0-9.65-9.65l-1-1a8.18,8.18,0,0,1,11.57,11.57Z"/></g></g></svg>