<svg xmlns="http://www.w3.org/2000/svg" xmlns:xlink="http://www.w3.org/1999/xlink" viewBox="0 0 175.75 283.46"><defs><style>.cls-1{fill:url(#linear-gradient);}.cls-2{fill:#056f77;}.cls-3{fill:#6cc9cb;}</style><linearGradient id="linear-gradient" x1="-37.6" y1="214.18" x2="213.35" y2="69.29" gradientUnits="userSpaceOnUse"><stop offset="0.5" stop-color="#414042"/><stop offset="0.68" stop-color="#48484a"/></linearGradient></defs><title>BA</title><g id="Layer_2" data-name="Layer 2"><g id="Layer_1-2" data-name="Layer 1"><rect class="cls-1" width="175.75" height="283.46" rx="5.69" ry="5.69"/><path class="cls-2" d="M25.38,19.23a6.82,6.82,0,0,1-9.64-9.64l-1-1A8.19,8.19,0,0,0,26.35,20.2Z"/><path class="cls-3" d="M25.38,19.23a6.82,6.82,0,0,0-9.64-9.64l-1-1A8.19,8.19,0,0,1,26.35,20.2Z"/><path class="cls-2" d="M16,26.64a6.82,6.82,0,1,1-9.65,9.64l-1,1A8.18,8.18,0,0,0,17,25.67Z"/><path class="cls-3" d="M16,26.64a6.82,6.82,0,0,0-9.65,9.64l-1,1A8.18,8.18,0,0,1,17,25.67Z"/><path class="cls-2" d="M34.77,36.28a6.82,6.82,0,1,1-9.65-9.64l-1-1A8.18,8.18,0,0,0,35.73,37.25Z"/><path class="cls-3" d="M34.77,36.28a6.82,6.82,0,0,0-9.65-9.64l-1-1A8.18,8.18,0,0,1,35.73,37.25Z"/><path class="cls-2" d="M154,255.83a6.82,6.82,0,0,1-9.64-9.65l-1-1A8.18,8.18,0,0,0,155,256.79Z"/><path class="cls-3" d="M154,255.83a6.82,6.82,0,1,0-9.64-9.65l-1-1A8.18,8.18,0,0,1,155,256.79Z"/><path class="cls-2" d="M144.65,263.24a6.82,6.82,0,0,1-9.65,9.64l-1,1a8.18,8.18,0,0,0,11.57-11.57Z"/><path class="cls-3" d="M144.65,263.24a6.82,6.82,0,1,0-9.65,9.64l-1,1a8.18,8.18,0,1,1,11.57-11.57Z"/><path class="cls-2" d="M163.41,272.88a6.82,6.82,0,0,1-9.64-9.64l-1-1a8.18,8.18,0,0,0,11.58,11.57Z"/><path class="cls-3" d="M163.41,272.88a6.82,6.82,0,0,0-9.64-9.64l-1-1a8.18,8.18,0,1,1,11.58,11.57Z"/><path class="cls-3" d="M32.32,111.18,47.93,82.72l.17-.52h1.7V203.46h-2V87.22L34.54,111.29Z"/><path class="cls-3" d="M77.82,98.83Q88.34,82,103,82q12.9.18,22.92,14.38,12.56,18.19,12.56,46.26,0,26-11,44-10.2,16.8-24.45,16.8-13.24-.17-23.44-14.38Q66.79,170.9,66.78,142.66,66.78,116.85,77.82,98.83Zm1,85.58q10,17,24.11,17,12.22-.16,21.73-14,11.72-17.67,11.71-44.69,0-24.25-10-41.58-9.69-17-23.43-17-12.74.18-22.42,14.21Q68.82,115.8,68.82,142.66,68.82,166.92,78.84,184.41Z"/></g></g></svg>