<svg xmlns="http://www.w3.org/2000/svg" xmlns:xlink="http://www.w3.org/1999/xlink" viewBox="0 0 175.75 283.46"><defs><style>.cls-1{fill:url(#linear-gradient);}.cls-2{fill:#6cc9cb;}.cls-3{fill:#056f77;}</style><linearGradient id="linear-gradient" x1="-37.6" y1="214.18" x2="213.35" y2="69.29" gradientUnits="userSpaceOnUse"><stop offset="0.5" stop-color="#414042"/><stop offset="0.68" stop-color="#48484a"/></linearGradient></defs><title>BF</title><g id="Layer_2" data-name="Layer 2"><g id="Layer_1-2" data-name="Layer 1"><rect class="cls-1" width="175.75" height="283.46" rx="5.69" ry="5.69"/><path class="cls-2" d="M51.2,113.31h-2v-1q0-10.74,7.81-19.4Q67.83,81.44,85,81.44a38.63,38.63,0,0,1,23.43,7.45q12.41,9.18,12.4,23.38a32.85,32.85,0,0,1-4.42,16.11q-6.28,11.26-25.63,26.16Q71.23,169.8,68.85,171.87,51.2,187.11,51.2,200.8h69.61v2.08H49.16v-1a30.77,30.77,0,0,1,4.24-15.07q5.77-10.4,24.62-25Q97.21,146.75,100.26,144q18.51-16.45,18.51-31.71a26.1,26.1,0,0,0-7.13-17.84Q101.45,83.51,85,83.52a36.88,36.88,0,0,0-21.9,6.75q-11.88,8.67-11.88,22Z"/><path class="cls-3" d="M29.68,19.66A6.82,6.82,0,0,1,20,10l-1-1A8.18,8.18,0,1,0,30.64,20.63Z"/><path class="cls-2" d="M29.68,19.66A6.82,6.82,0,0,0,20,10l-1-1A8.18,8.18,0,0,1,30.64,20.63Z"/><path class="cls-3" d="M20.29,27.07a6.82,6.82,0,0,1-9.64,9.64l-1,1A8.19,8.19,0,0,0,21.26,26.1Z"/><path class="cls-2" d="M20.29,27.07a6.82,6.82,0,0,0-9.64,9.64l-1,1A8.19,8.19,0,0,1,21.26,26.1Z"/><path class="cls-3" d="M39.06,36.71a6.82,6.82,0,0,1-9.64-9.64l-1-1A8.19,8.19,0,0,0,40,37.68Z"/><path class="cls-2" d="M39.06,36.71a6.82,6.82,0,0,0-9.64-9.64l-1-1A8.19,8.19,0,1,1,40,37.68Z"/><path class="cls-3" d="M158.32,256.26a6.82,6.82,0,0,1-9.64-9.65l-1-1a8.18,8.18,0,0,0,11.57,11.57Z"/><path class="cls-2" d="M158.32,256.26a6.82,6.82,0,1,0-9.64-9.65l-1-1a8.18,8.18,0,1,1,11.57,11.57Z"/><path class="cls-3" d="M148.94,263.66a6.82,6.82,0,1,1-9.64,9.65l-1,1a8.18,8.18,0,1,0,11.58-11.57Z"/><path class="cls-2" d="M148.94,263.66a6.82,6.82,0,0,0-9.64,9.65l-1,1a8.18,8.18,0,0,1,11.58-11.57Z"/><path class="cls-3" d="M167.71,273.31a6.82,6.82,0,1,1-9.64-9.65l-1-1a8.18,8.18,0,1,0,11.58,11.57Z"/><path class="cls-2" d="M167.71,273.31a6.82,6.82,0,0,0-9.64-9.65l-1-1a8.18,8.18,0,0,1,11.58,11.57Z"/></g></g></svg>