<svg xmlns="http://www.w3.org/2000/svg" xmlns:xlink="http://www.w3.org/1999/xlink" viewBox="0 0 175.75 283.46"><defs><style>.cls-1{fill:url(#linear-gradient);}.cls-2{fill:#ec008c;}.cls-3{fill:#9e1f63;}</style><linearGradient id="linear-gradient" x1="-37.6" y1="214.18" x2="213.35" y2="69.29" gradientUnits="userSpaceOnUse"><stop offset="0.5" stop-color="#414042"/><stop offset="0.68" stop-color="#48484a"/></linearGradient></defs><title>C6</title><g id="Layer_2" data-name="Layer 2"><g id="Layer_1-2" data-name="Layer 1"><rect class="cls-1" width="175.75" height="283.46" rx="5.69" ry="5.69"/><path class="cls-2" d="M91.08,70.89v2.25l-.68.34q-8,3.3-15.79,14.38Q60.69,108,57.12,137.24a47.85,47.85,0,0,1,6.11-10.4q10.71-13.34,26.83-13.34A33.31,33.31,0,0,1,113.49,123q12.39,11.79,12.4,30a41.65,41.65,0,0,1-9,26.51q-10.69,13.34-26.83,13.34A33.46,33.46,0,0,1,67.31,184Q54.74,172.4,54.24,154v-1.21A122.15,122.15,0,0,1,67.82,95.66q10-19.39,21.9-24.25ZM64.42,177.77q10.18,13,25.64,13a30.94,30.94,0,0,0,21.9-9Q123.84,170.5,123.85,153a38.92,38.92,0,0,0-8.15-24.43q-10.19-13-25.64-13a31.24,31.24,0,0,0-21.9,8.84Q56.27,135.69,56.27,153A41.26,41.26,0,0,0,64.42,177.77Z"/><polygon class="cls-3" points="23.57 38.74 23.57 32.49 10.95 12.53 23.57 14.69 8.22 8.45 5.5 8.45 23.57 38.74"/><polygon class="cls-2" points="23.57 38.74 23.57 32.49 36.18 12.53 23.57 14.69 38.91 8.45 41.63 8.45 23.57 38.74"/><polygon class="cls-3" points="149.59 276.34 149.59 270.09 136.98 250.13 149.59 252.28 134.25 246.04 131.53 246.04 149.59 276.34"/><polygon class="cls-2" points="149.59 276.34 149.59 270.09 162.21 250.13 149.59 252.28 164.94 246.04 167.65 246.04 149.59 276.34"/></g></g></svg>