<svg xmlns="http://www.w3.org/2000/svg" xmlns:xlink="http://www.w3.org/1999/xlink" viewBox="0 0 175.75 283.46"><defs><style>.cls-1{fill:url(#linear-gradient);}.cls-2{fill:#ec008c;}.cls-3{fill:#9e1f63;}</style><linearGradient id="linear-gradient" x1="-37.6" y1="214.18" x2="213.35" y2="69.29" gradientUnits="userSpaceOnUse"><stop offset="0.5" stop-color="#414042"/><stop offset="0.68" stop-color="#48484a"/></linearGradient></defs><title>C8</title><g id="Layer_2" data-name="Layer 2"><g id="Layer_1-2" data-name="Layer 1"><rect class="cls-1" width="175.75" height="283.46" rx="5.69" ry="5.69"/><path class="cls-2" d="M60.8,140.53A35.66,35.66,0,0,1,83.38,123.2a35.53,35.53,0,0,1-10.86-4.85q-11.2-8-11.21-20.27A24.07,24.07,0,0,1,67.59,82q9.18-10.56,24.79-10.56a33.13,33.13,0,0,1,19.36,5.89q11.37,8,11.37,20.78a23,23,0,0,1-2.71,10.75q-5.78,10.9-19.19,14.55A37,37,0,0,1,116,131,34.28,34.28,0,0,1,128,157.68a33.41,33.41,0,0,1-8.66,22.69,34.43,34.43,0,0,1-27.17,12.3A35.31,35.31,0,0,1,68.61,184a33.06,33.06,0,0,1-12.22-26.33A35.5,35.5,0,0,1,60.8,140.53Zm31.58-16.11H89.84a32.93,32.93,0,0,0-19.53,7.79,32.94,32.94,0,0,0-4.25,46.43q10,12,26.15,12A33.83,33.83,0,0,0,114,183a31.25,31.25,0,0,0,12-25.29,32.87,32.87,0,0,0-6.62-19.92,31.86,31.86,0,0,0-24.45-13.34ZM68.1,111.25q7.82,10.05,21.74,10.91h4.92A30.47,30.47,0,0,0,110.21,117q10.86-7.27,10.87-18.89a22.56,22.56,0,0,0-5.61-14.72q-8.66-9.87-23.09-9.88a31.51,31.51,0,0,0-18,5.38q-11,7.27-11,19.22A20.89,20.89,0,0,0,68.1,111.25Z"/><polygon class="cls-3" points="24.86 38.08 24.86 31.83 12.25 11.87 24.86 14.03 9.51 7.79 6.8 7.79 24.86 38.08"/><polygon class="cls-2" points="24.86 38.08 24.86 31.83 37.48 11.87 24.86 14.03 40.21 7.79 42.92 7.79 24.86 38.08"/><polygon class="cls-3" points="150.89 275.68 150.89 269.43 138.27 249.47 150.89 251.62 135.54 245.38 132.83 245.38 150.89 275.68"/><polygon class="cls-2" points="150.89 275.68 150.89 269.43 163.5 249.47 150.89 251.62 166.23 245.38 168.95 245.38 150.89 275.68"/></g></g></svg>