<svg xmlns="http://www.w3.org/2000/svg" xmlns:xlink="http://www.w3.org/1999/xlink" viewBox="0 0 175.75 283.46"><defs><style>.cls-1{fill:url(#linear-gradient);}.cls-2{fill:#ec008c;}.cls-3{fill:#9e1f63;}</style><linearGradient id="linear-gradient" x1="-37.6" y1="214.18" x2="213.35" y2="69.29" gradientUnits="userSpaceOnUse"><stop offset="0.5" stop-color="#414042"/><stop offset="0.68" stop-color="#48484a"/></linearGradient></defs><title>C9</title><g id="Layer_2" data-name="Layer 2"><g id="Layer_1-2" data-name="Layer 1"><rect class="cls-1" width="175.75" height="283.46" rx="5.69" ry="5.69"/><path class="cls-2" d="M125.83,111.06v.69a42.63,42.63,0,0,1-2.21,12.47Q117,148.13,90.85,192.83l-.34.52H88.13l1-1.56q20.2-34.83,28.53-56.31a10.94,10.94,0,0,0-.85,1q-10.53,13-26.66,13a33.82,33.82,0,0,1-23.6-9.36q-12.39-11.59-12.39-29.28A40.21,40.21,0,0,1,63,85.07q10.7-13.15,27-13.16a33.45,33.45,0,0,1,22.75,8.83q12.57,11.08,13.08,29.1v1.22ZM115.64,87Q105.62,74,90,74a31.23,31.23,0,0,0-21.9,8.83Q56.21,93.74,56.21,110.88a37.69,37.69,0,0,0,8.15,23.91q10,12.65,25.81,12.65a32,32,0,0,0,14.09-3.29q13.08-6.59,17.66-21.31a49.92,49.92,0,0,0,1.87-11.09v-.87A39.07,39.07,0,0,0,115.64,87Z"/><polygon class="cls-3" points="23.16 38.75 23.16 32.5 10.54 12.54 23.16 14.7 7.81 8.45 5.1 8.45 23.16 38.75"/><polygon class="cls-2" points="23.16 38.75 23.16 32.5 35.77 12.54 23.16 14.7 38.5 8.45 41.22 8.45 23.16 38.75"/><polygon class="cls-3" points="149.18 276.35 149.18 270.1 136.57 250.13 149.18 252.29 133.84 246.05 131.12 246.05 149.18 276.35"/><polygon class="cls-2" points="149.18 276.35 149.18 270.1 161.8 250.13 149.18 252.29 164.53 246.05 167.24 246.05 149.18 276.35"/></g></g></svg>