<svg xmlns="http://www.w3.org/2000/svg" xmlns:xlink="http://www.w3.org/1999/xlink" viewBox="0 0 175.75 283.46"><defs><style>.cls-1{fill:url(#linear-gradient);}.cls-2{fill:#ec008c;}.cls-3{fill:#9e1f63;}</style><linearGradient id="linear-gradient" x1="-37.6" y1="214.18" x2="213.35" y2="69.29" gradientUnits="userSpaceOnUse"><stop offset="0.5" stop-color="#414042"/><stop offset="0.68" stop-color="#48484a"/></linearGradient></defs><title>CB</title><g id="Layer_2" data-name="Layer 2"><g id="Layer_1-2" data-name="Layer 1"><rect class="cls-1" width="175.75" height="283.46" rx="5.69" ry="5.69"/><path class="cls-2" d="M109.22,66.7h3.39v87.66a28.12,28.12,0,0,1-7.47,18.54q-10.35,11.61-26.48,11.61a35.87,35.87,0,0,1-22.08-7.11q-11.71-9-11.88-23v-1.73h3.4v1.73a24.92,24.92,0,0,0,6.11,15.94Q63.21,181,78.66,181a31.94,31.94,0,0,0,19.52-6.41q10.88-8.15,11-20.27V66.7Z"/><polygon class="cls-3" points="23.57 38.07 23.57 31.82 10.95 11.86 23.57 14.02 8.22 7.78 5.5 7.78 23.57 38.07"/><polygon class="cls-2" points="23.57 38.07 23.57 31.82 36.18 11.86 23.57 14.02 38.91 7.78 41.63 7.78 23.57 38.07"/><polygon class="cls-3" points="149.59 275.67 149.59 269.42 136.98 249.46 149.59 251.62 134.25 245.37 131.53 245.37 149.59 275.67"/><polygon class="cls-2" points="149.59 275.67 149.59 269.42 162.21 249.46 149.59 251.62 164.94 245.37 167.65 245.37 149.59 275.67"/></g></g></svg>