<svg xmlns="http://www.w3.org/2000/svg" xmlns:xlink="http://www.w3.org/1999/xlink" viewBox="0 0 175.75 283.46"><defs><style>.cls-1{fill:url(#linear-gradient);}.cls-2{fill:#ec008c;}.cls-3{fill:#9e1f63;}</style><linearGradient id="linear-gradient" x1="-37.6" y1="214.18" x2="213.35" y2="69.29" gradientUnits="userSpaceOnUse"><stop offset="0.5" stop-color="#414042"/><stop offset="0.68" stop-color="#48484a"/></linearGradient></defs><title>CC</title><g id="Layer_2" data-name="Layer 2"><g id="Layer_1-2" data-name="Layer 1"><rect class="cls-1" width="175.75" height="283.46" rx="5.69" ry="5.69"/><path class="cls-2" d="M55.33,91.83Q70.27,75.38,90.65,75.37q20.7.18,35.65,16.8,15.29,17.33,15.28,42.1,0,23.22-13.75,40.37l13.41,15.59,2.38,2.94H139l-.51-.52-13.08-15.24Q110.67,193,90.65,193.17,70.1,193,55,176.37,39.71,159,39.71,134.27,39.88,109.51,55.33,91.83ZM57.2,173.6q13.92,16.11,33.45,16.11,18.67-.18,32.42-14.9l-9.16-10.74-2.38-2.95h4.58l.51.52,8.83,10.4Q138,156.1,138.19,134.27q0-22.86-13.93-39.15T90.65,78.84q-19,.16-32.94,15.41-14.61,16.47-14.61,40Q43.1,157.31,57.2,173.6Z"/><polygon class="cls-3" points="24.86 37.41 24.86 31.16 12.25 11.2 24.86 13.36 9.51 7.12 6.8 7.12 24.86 37.41"/><polygon class="cls-2" points="24.86 37.41 24.86 31.16 37.48 11.2 24.86 13.36 40.21 7.12 42.92 7.12 24.86 37.41"/><polygon class="cls-3" points="150.89 275.01 150.89 268.76 138.27 248.79 150.89 250.95 135.54 244.71 132.83 244.71 150.89 275.01"/><polygon class="cls-2" points="150.89 275.01 150.89 268.76 163.5 248.79 150.89 250.95 166.23 244.71 168.95 244.71 150.89 275.01"/></g></g></svg>