<svg xmlns="http://www.w3.org/2000/svg" xmlns:xlink="http://www.w3.org/1999/xlink" viewBox="0 0 175.75 283.46"><defs><style>.cls-1{fill:url(#linear-gradient);}.cls-2{fill:#ec008c;}.cls-3{fill:#9e1f63;}</style><linearGradient id="linear-gradient" x1="-37.6" y1="214.18" x2="213.35" y2="69.29" gradientUnits="userSpaceOnUse"><stop offset="0.5" stop-color="#414042"/><stop offset="0.68" stop-color="#48484a"/></linearGradient></defs><title>CD</title><g id="Layer_2" data-name="Layer 2"><g id="Layer_1-2" data-name="Layer 1"><rect class="cls-1" width="175.75" height="283.46" rx="5.69" ry="5.69"/><path class="cls-2" d="M61.68,136.37v57.17h-3.4V75.74h3.4v57.17H78.83L136.9,76.26l.5-.52h4.93l-3.06,2.94-57.39,56,57.39,56,3.06,2.95H137.4l-.5-.52L78.83,136.37Z"/><polygon class="cls-3" points="26.07 38.08 26.07 31.83 13.45 11.87 26.07 14.03 10.72 7.79 8.01 7.79 26.07 38.08"/><polygon class="cls-2" points="26.07 38.08 26.07 31.83 38.68 11.87 26.07 14.03 41.41 7.79 44.13 7.79 26.07 38.08"/><polygon class="cls-3" points="152.09 275.68 152.09 269.43 139.48 249.47 152.09 251.62 136.75 245.38 134.03 245.38 152.09 275.68"/><polygon class="cls-2" points="152.09 275.68 152.09 269.43 164.71 249.47 152.09 251.62 167.44 245.38 170.15 245.38 152.09 275.68"/></g></g></svg>