<svg xmlns="http://www.w3.org/2000/svg" xmlns:xlink="http://www.w3.org/1999/xlink" viewBox="0 0 175.75 283.46"><defs><style>.cls-1{fill:url(#linear-gradient);}.cls-2{fill:#ec008c;}.cls-3{fill:#9e1f63;}</style><linearGradient id="linear-gradient" x1="-37.6" y1="214.18" x2="213.35" y2="69.29" gradientUnits="userSpaceOnUse"><stop offset="0.5" stop-color="#414042"/><stop offset="0.68" stop-color="#48484a"/></linearGradient></defs><title>CE</title><g id="Layer_2" data-name="Layer 2"><g id="Layer_1-2" data-name="Layer 1"><rect class="cls-1" width="175.75" height="283.46" rx="5.69" ry="5.69"/><path class="cls-2" d="M38.88,193.67H35.14l1-2.42L85.4,76.91a1.91,1.91,0,0,1,.68-.69c1.13-.58,1.92-.35,2.38.69L137.7,191.25l1,2.42H135l-.34-1L86.93,81.93,39.22,192.63Z"/><polygon class="cls-3" points="23.57 38.22 23.57 31.97 10.95 12 23.57 14.16 8.22 7.92 5.5 7.92 23.57 38.22"/><polygon class="cls-2" points="23.57 38.22 23.57 31.97 36.18 12 23.57 14.16 38.91 7.92 41.63 7.92 23.57 38.22"/><polygon class="cls-3" points="149.59 275.81 149.59 269.56 136.98 249.6 149.59 251.76 134.25 245.51 131.53 245.51 149.59 275.81"/><polygon class="cls-2" points="149.59 275.81 149.59 269.56 162.21 249.6 149.59 251.76 164.94 245.51 167.65 245.51 149.59 275.81"/></g></g></svg>