<svg xmlns="http://www.w3.org/2000/svg" xmlns:xlink="http://www.w3.org/1999/xlink" viewBox="0 0 175.75 283.46"><defs><style>.cls-1{fill:url(#linear-gradient);}.cls-2{fill:#056f77;}.cls-3{fill:#6cc9cb;}</style><linearGradient id="linear-gradient" x1="-37.6" y1="214.18" x2="213.35" y2="69.29" gradientUnits="userSpaceOnUse"><stop offset="0.5" stop-color="#414042"/><stop offset="0.68" stop-color="#48484a"/></linearGradient></defs><title>D3</title><g id="Layer_2" data-name="Layer 2"><g id="Layer_1-2" data-name="Layer 1"><rect class="cls-1" width="175.75" height="283.46" rx="5.69" ry="5.69"/><polygon class="cls-2" points="24.08 4.27 24.08 8.5 41.04 37.88 24.08 37.88 24.08 39.6 44.48 39.6 24.08 4.27"/><polygon class="cls-3" points="24.08 4.27 24.08 8.5 7.12 37.88 24.08 37.88 24.08 39.6 3.68 39.6 24.08 4.27"/><polygon class="cls-2" points="150.08 239.58 150.08 243.82 167.04 273.19 150.08 273.19 150.08 274.92 170.48 274.92 150.08 239.58"/><polygon class="cls-3" points="150.08 239.58 150.08 243.82 133.12 273.19 150.08 273.19 150.08 274.92 129.68 274.92 150.08 239.58"/><path class="cls-3" d="M59.06,81.81V79.73h55.7l-1,1.56L85,127a34.55,34.55,0,0,1,23.26,9q12.23,11.1,12.23,27.2a36.9,36.9,0,0,1-9.34,25q-11.2,13-28,13a39.42,39.42,0,0,1-19.86-5q-12.57-7.28-15.11-20.79L48,174.15h2l.17.86a26.86,26.86,0,0,0,5.6,12.13q9.51,12,27.33,12a34.25,34.25,0,0,0,23.1-8.66,34.63,34.63,0,0,0,12.22-27.2,33.29,33.29,0,0,0-8.15-22q-10.7-12.12-27.17-12.13H81.31l1-1.56L111,81.81h-52Z"/></g></g></svg>