<svg xmlns="http://www.w3.org/2000/svg" xmlns:xlink="http://www.w3.org/1999/xlink" viewBox="0 0 175.75 283.46"><defs><style>.cls-1{fill:url(#linear-gradient);}.cls-2{fill:#056f77;}.cls-3{fill:#6cc9cb;}</style><linearGradient id="linear-gradient" x1="-37.6" y1="214.18" x2="213.35" y2="69.29" gradientUnits="userSpaceOnUse"><stop offset="0.5" stop-color="#414042"/><stop offset="0.68" stop-color="#48484a"/></linearGradient></defs><title>D6</title><g id="Layer_2" data-name="Layer 2"><g id="Layer_1-2" data-name="Layer 1"><rect class="cls-1" width="175.75" height="283.46" rx="5.69" ry="5.69"/><polygon class="cls-2" points="22.64 6.41 22.64 10.64 39.6 40.02 22.64 40.02 22.64 41.74 43.04 41.74 22.64 6.41"/><polygon class="cls-3" points="22.64 6.41 22.64 10.64 5.68 40.02 22.64 40.02 22.64 41.74 2.24 41.74 22.64 6.41"/><polygon class="cls-2" points="148.64 241.72 148.64 245.96 165.6 275.33 148.64 275.33 148.64 277.06 169.04 277.06 148.64 241.72"/><polygon class="cls-3" points="148.64 241.72 148.64 245.96 131.68 275.33 148.64 275.33 148.64 277.06 128.24 277.06 148.64 241.72"/><path class="cls-3" d="M83.91,79.21v2.25l-.68.35q-8,3.3-15.79,14.38Q53.52,116.29,50,145.56a47.78,47.78,0,0,1,6.11-10.39q10.69-13.35,26.83-13.34a33.31,33.31,0,0,1,23.43,9.53q12.39,11.77,12.39,30a41.67,41.67,0,0,1-9,26.5Q99,201.17,82.89,201.17a33.49,33.49,0,0,1-22.75-8.83q-12.57-11.61-13.08-30v-1.22A122.16,122.16,0,0,1,60.65,104q10-19.4,21.9-24.25ZM57.25,186.1q10.19,13,25.64,13a30.9,30.9,0,0,0,21.9-9q11.88-11.25,11.89-28.75a38.92,38.92,0,0,0-8.15-24.43q-10.19-13-25.64-13A31.21,31.21,0,0,0,61,132.74Q49.1,144,49.1,161.33A41.28,41.28,0,0,0,57.25,186.1Z"/></g></g></svg>