<svg xmlns="http://www.w3.org/2000/svg" xmlns:xlink="http://www.w3.org/1999/xlink" viewBox="0 0 175.75 283.46"><defs><style>.cls-1{fill:url(#linear-gradient);}.cls-2{fill:#056f77;}.cls-3{fill:#6cc9cb;}</style><linearGradient id="linear-gradient" x1="-37.6" y1="214.18" x2="213.35" y2="69.29" gradientUnits="userSpaceOnUse"><stop offset="0.5" stop-color="#414042"/><stop offset="0.68" stop-color="#48484a"/></linearGradient></defs><title>D8</title><g id="Layer_2" data-name="Layer 2"><g id="Layer_1-2" data-name="Layer 1"><rect class="cls-1" width="175.75" height="283.46" rx="5.69" ry="5.69"/><polygon class="cls-2" points="24.87 6.41 24.87 10.64 41.83 40.02 24.87 40.02 24.87 41.74 45.28 41.74 24.87 6.41"/><polygon class="cls-3" points="24.87 6.41 24.87 10.64 7.92 40.02 24.87 40.02 24.87 41.74 4.47 41.74 24.87 6.41"/><polygon class="cls-2" points="150.87 241.72 150.87 245.96 167.83 275.33 150.87 275.33 150.87 277.06 171.28 277.06 150.87 241.72"/><polygon class="cls-3" points="150.87 241.72 150.87 245.96 133.92 275.33 150.87 275.33 150.87 277.06 130.47 277.06 150.87 241.72"/><path class="cls-3" d="M53.63,148.85a35.62,35.62,0,0,1,22.58-17.32,35.77,35.77,0,0,1-10.86-4.85q-11.2-8-11.21-20.27A24.07,24.07,0,0,1,60.42,90.3q9.17-10.56,24.79-10.57a33.21,33.21,0,0,1,19.36,5.89q11.37,8,11.37,20.79a22.88,22.88,0,0,1-2.71,10.74Q107.45,128.07,94,131.7a37.13,37.13,0,0,1,14.77,7.62A34.31,34.31,0,0,1,120.87,166a33.45,33.45,0,0,1-8.66,22.7A34.43,34.43,0,0,1,85,201a35.37,35.37,0,0,1-23.6-8.66A33.08,33.08,0,0,1,49.22,166,35.52,35.52,0,0,1,53.63,148.85Zm31.58-16.11H82.66a32.87,32.87,0,0,0-19.52,7.8A32.94,32.94,0,0,0,58.89,187q10,11.94,26.15,11.95a33.79,33.79,0,0,0,21.73-7.62A31.26,31.26,0,0,0,118.83,166a32.91,32.91,0,0,0-6.62-19.92,31.86,31.86,0,0,0-24.45-13.34ZM60.93,119.58q7.82,10,21.73,10.91h4.93a30.57,30.57,0,0,0,15.45-5.2q10.86-7.28,10.87-18.88a22.6,22.6,0,0,0-5.61-14.73q-8.65-9.87-23.09-9.87a31.51,31.51,0,0,0-18,5.37q-11,7.27-11,19.23A20.91,20.91,0,0,0,60.93,119.58Z"/></g></g></svg>