<svg xmlns="http://www.w3.org/2000/svg" xmlns:xlink="http://www.w3.org/1999/xlink" viewBox="0 0 175.75 283.46"><defs><style>.cls-1{fill:url(#linear-gradient);}.cls-2{fill:#056f77;}.cls-3{fill:#6cc9cb;}</style><linearGradient id="linear-gradient" x1="-37.6" y1="214.18" x2="213.35" y2="69.29" gradientUnits="userSpaceOnUse"><stop offset="0.5" stop-color="#414042"/><stop offset="0.68" stop-color="#48484a"/></linearGradient></defs><title>DD</title><g id="Layer_2" data-name="Layer 2"><g id="Layer_1-2" data-name="Layer 1"><rect class="cls-1" width="175.75" height="283.46" rx="5.69" ry="5.69"/><polygon class="cls-2" points="25.14 3.41 25.14 7.64 42.1 37.02 25.14 37.02 25.14 38.74 45.54 38.74 25.14 3.41"/><polygon class="cls-3" points="25.14 3.41 25.14 7.64 8.18 37.02 25.14 37.02 25.14 38.74 4.74 38.74 25.14 3.41"/><polygon class="cls-2" points="151.14 238.72 151.14 242.96 168.1 272.33 151.14 272.33 151.14 274.06 171.54 274.06 151.14 238.72"/><polygon class="cls-3" points="151.14 238.72 151.14 242.96 134.18 272.33 151.14 272.33 151.14 274.06 130.74 274.06 151.14 238.72"/><path class="cls-3" d="M54.51,144.7v57.16h-3.4V84.06h3.4v57.17H71.66l58.06-56.65.51-.52h4.93l-3.06,3L74.71,143l57.39,56,3.06,2.94h-4.93l-.51-.52L71.66,144.7Z"/></g></g></svg>