<svg xmlns="http://www.w3.org/2000/svg" xmlns:xlink="http://www.w3.org/1999/xlink" viewBox="0 0 175.75 283.46"><defs><style>.cls-1{fill:url(#linear-gradient);}.cls-2{fill:#056f77;}.cls-3{fill:#6cc9cb;}</style><linearGradient id="linear-gradient" x1="-37.6" y1="214.18" x2="213.35" y2="69.29" gradientUnits="userSpaceOnUse"><stop offset="0.5" stop-color="#414042"/><stop offset="0.68" stop-color="#48484a"/></linearGradient></defs><title>DE</title><g id="Layer_2" data-name="Layer 2"><g id="Layer_1-2" data-name="Layer 1"><rect class="cls-1" width="175.75" height="283.46" rx="5.69" ry="5.69"/><polygon class="cls-2" points="23.43 3.54 23.43 7.78 40.39 37.15 23.43 37.15 23.43 38.88 43.83 38.88 23.43 3.54"/><polygon class="cls-3" points="23.43 3.54 23.43 7.78 6.47 37.15 23.43 37.15 23.43 38.88 3.03 38.88 23.43 3.54"/><polygon class="cls-2" points="149.43 238.86 149.43 243.09 166.39 272.46 149.43 272.46 149.43 274.19 169.83 274.19 149.43 238.86"/><polygon class="cls-3" points="149.43 238.86 149.43 243.09 132.47 272.46 149.43 272.46 149.43 274.19 129.03 274.19 149.43 238.86"/><path class="cls-3" d="M40.41,202H36.68l1-2.43L86.94,85.24a1.93,1.93,0,0,1,.68-.7c1.13-.57,1.92-.34,2.37.7l49.24,114.33,1,2.43h-3.73l-.34-1L88.47,90.26,40.75,201Z"/></g></g></svg>