<svg xmlns="http://www.w3.org/2000/svg" xmlns:xlink="http://www.w3.org/1999/xlink" viewBox="0 0 175.75 283.46"><defs><style>.cls-1{fill:url(#linear-gradient);}.cls-2{fill:#ec008c;}.cls-3{fill:#9e1f63;}</style><linearGradient id="linear-gradient" x1="-37.6" y1="214.18" x2="213.35" y2="69.29" gradientUnits="userSpaceOnUse"><stop offset="0.5" stop-color="#414042"/><stop offset="0.68" stop-color="#48484a"/></linearGradient></defs><title>A7</title><g id="Layer_2" data-name="Layer 2"><g id="Layer_1-2" data-name="Layer 1"><rect class="cls-1" width="175.75" height="283.46" rx="5.69" ry="5.69"/><path class="cls-2" d="M50.84,83.52V81.44h69.44l-1,1.56q-9.51,15.42-16.64,28.58Q77.5,157.66,69,202l-.17.87h-2l.17-1.22a290.21,290.21,0,0,1,8.32-32.91q11.88-37.59,41.26-85.23H50.84Z"/><polygon class="cls-3" points="14.71 6.75 18.33 6.75 9.99 20.86 8.2 23.84 4.63 23.84 14.71 6.75"/><polygon class="cls-3" points="17.58 40.93 13.97 40.93 22.3 26.82 24.1 23.84 27.67 23.84 17.58 40.93"/><polygon class="cls-2" points="14.08 40.93 17.57 40.93 9.99 26.82 8.2 23.84 4.63 23.84 14.08 40.93"/><polygon class="cls-2" points="18.21 6.75 14.72 6.75 22.3 20.86 24.1 23.84 27.67 23.84 18.21 6.75"/><polygon class="cls-3" points="157.14 242.73 160.76 242.73 152.42 256.83 150.62 259.82 147.06 259.82 157.14 242.73"/><polygon class="cls-3" points="160.01 276.91 156.39 276.91 164.73 262.8 166.53 259.82 170.09 259.82 160.01 276.91"/><polygon class="cls-2" points="156.51 276.91 160 276.91 152.42 262.8 150.62 259.82 147.06 259.82 156.51 276.91"/><polygon class="cls-2" points="160.64 242.73 157.15 242.73 164.73 256.83 166.53 259.82 170.09 259.82 160.64 242.73"/></g></g></svg>