<svg xmlns="http://www.w3.org/2000/svg" xmlns:xlink="http://www.w3.org/1999/xlink" viewBox="0 0 175.75 283.46"><defs><style>.cls-1{fill:url(#linear-gradient);}.cls-2{fill:#ec008c;}.cls-3{fill:#9e1f63;}</style><linearGradient id="linear-gradient" x1="-37.6" y1="214.18" x2="213.35" y2="69.29" gradientUnits="userSpaceOnUse"><stop offset="0.5" stop-color="#414042"/><stop offset="0.68" stop-color="#48484a"/></linearGradient></defs><title>A9</title><g id="Layer_2" data-name="Layer 2"><g id="Layer_1-2" data-name="Layer 1"><rect class="cls-1" width="175.75" height="283.46" rx="5.69" ry="5.69"/><path class="cls-2" d="M125.83,121.09v.69a42.69,42.69,0,0,1-2.21,12.48q-6.63,23.9-32.77,68.6l-.34.52H88.13l1-1.56q20.2-34.83,28.53-56.3a9.48,9.48,0,0,0-.85,1q-10.53,13-26.66,13a33.82,33.82,0,0,1-23.6-9.36Q54.18,138.6,54.18,120.92A40.24,40.24,0,0,1,63,95.1q10.7-13.15,27-13.16a33.45,33.45,0,0,1,22.75,8.83q12.57,11.08,13.08,29.11v1.21ZM115.64,97Q105.62,84,90,84a31.23,31.23,0,0,0-21.9,8.83q-11.89,10.92-11.89,28.07a37.69,37.69,0,0,0,8.15,23.9q10,12.65,25.81,12.65a32,32,0,0,0,14.09-3.29q13.08-6.59,17.66-21.31a49.92,49.92,0,0,0,1.87-11.09v-.86A39.08,39.08,0,0,0,115.64,97Z"/><polygon class="cls-3" points="12.74 6.67 16.36 6.67 8.02 20.78 6.22 23.76 2.65 23.76 12.74 6.67"/><polygon class="cls-3" points="15.61 40.85 11.99 40.85 20.33 26.75 22.13 23.76 25.69 23.76 15.61 40.85"/><polygon class="cls-2" points="12.11 40.85 15.6 40.85 8.02 26.75 6.22 23.76 2.65 23.76 12.11 40.85"/><polygon class="cls-2" points="16.24 6.67 12.75 6.67 20.33 20.78 22.13 23.76 25.69 23.76 16.24 6.67"/><polygon class="cls-3" points="155.16 242.65 158.78 242.65 150.44 256.75 148.65 259.74 145.08 259.74 155.16 242.65"/><polygon class="cls-3" points="158.03 276.83 154.42 276.83 162.76 262.72 164.55 259.74 168.12 259.74 158.03 276.83"/><polygon class="cls-2" points="154.53 276.83 158.03 276.83 150.44 262.72 148.65 259.74 145.08 259.74 154.53 276.83"/><polygon class="cls-2" points="158.66 242.65 155.18 242.65 162.76 256.75 164.55 259.74 168.12 259.74 158.66 242.65"/></g></g></svg>