<svg xmlns="http://www.w3.org/2000/svg" xmlns:xlink="http://www.w3.org/1999/xlink" viewBox="0 0 175.75 283.46"><defs><style>.cls-1{fill:url(#linear-gradient);}.cls-2{fill:#ec008c;}.cls-3{fill:#9e1f63;}</style><linearGradient id="linear-gradient" x1="-37.6" y1="214.18" x2="213.35" y2="69.29" gradientUnits="userSpaceOnUse"><stop offset="0.5" stop-color="#414042"/><stop offset="0.68" stop-color="#48484a"/></linearGradient></defs><title>AB</title><g id="Layer_2" data-name="Layer 2"><g id="Layer_1-2" data-name="Layer 1"><rect class="cls-1" width="175.75" height="283.46" rx="5.69" ry="5.69"/><path class="cls-2" d="M109.22,76.74h3.39v87.65a28.12,28.12,0,0,1-7.47,18.54q-10.35,11.61-26.48,11.61a35.87,35.87,0,0,1-22.08-7.11q-11.71-9-11.88-23v-1.73h3.4v1.73a24.92,24.92,0,0,0,6.11,15.94q9,10.74,24.45,10.74a31.94,31.94,0,0,0,19.52-6.41q10.88-8.13,11-20.27V76.74Z"/><polygon class="cls-3" points="14.71 6.87 18.33 6.87 9.99 20.97 8.2 23.95 4.63 23.95 14.71 6.87"/><polygon class="cls-3" points="17.58 41.05 13.97 41.05 22.3 26.94 24.1 23.95 27.67 23.95 17.58 41.05"/><polygon class="cls-2" points="14.08 41.05 17.57 41.05 9.99 26.94 8.2 23.95 4.63 23.95 14.08 41.05"/><polygon class="cls-2" points="18.21 6.87 14.72 6.87 22.3 20.97 24.1 23.95 27.67 23.95 18.21 6.87"/><polygon class="cls-3" points="157.14 242.84 160.76 242.84 152.42 256.95 150.62 259.93 147.06 259.93 157.14 242.84"/><polygon class="cls-3" points="160.01 277.02 156.39 277.02 164.73 262.92 166.53 259.93 170.09 259.93 160.01 277.02"/><polygon class="cls-2" points="156.51 277.02 160 277.02 152.42 262.92 150.62 259.93 147.06 259.93 156.51 277.02"/><polygon class="cls-2" points="160.64 242.84 157.15 242.84 164.73 256.95 166.53 259.93 170.09 259.93 160.64 242.84"/></g></g></svg>