<svg xmlns="http://www.w3.org/2000/svg" xmlns:xlink="http://www.w3.org/1999/xlink" viewBox="0 0 175.75 283.46"><defs><style>.cls-1{fill:url(#linear-gradient);}.cls-2{fill:#ec008c;}.cls-3{fill:#9e1f63;}</style><linearGradient id="linear-gradient" x1="-37.6" y1="214.18" x2="213.35" y2="69.29" gradientUnits="userSpaceOnUse"><stop offset="0.5" stop-color="#414042"/><stop offset="0.68" stop-color="#48484a"/></linearGradient></defs><title>AD</title><g id="Layer_2" data-name="Layer 2"><g id="Layer_1-2" data-name="Layer 1"><rect class="cls-1" width="175.75" height="283.46" rx="5.69" ry="5.69"/><path class="cls-2" d="M50.54,140.4v57.17H47.15V79.77h3.39v57.17H67.69l58.07-56.65.51-.52h4.92l-3.05,2.94-57.39,56,57.39,56,3.05,2.94h-4.92l-.51-.52L67.69,140.4Z"/><polygon class="cls-3" points="17.21 6.65 20.83 6.65 12.49 20.76 10.7 23.74 7.13 23.74 17.21 6.65"/><polygon class="cls-3" points="20.08 40.83 16.47 40.83 24.8 26.73 26.6 23.74 30.17 23.74 20.08 40.83"/><polygon class="cls-2" points="16.58 40.83 20.07 40.83 12.49 26.73 10.7 23.74 7.13 23.74 16.58 40.83"/><polygon class="cls-2" points="20.71 6.65 17.22 6.65 24.8 20.76 26.6 23.74 30.17 23.74 20.71 6.65"/><polygon class="cls-3" points="159.64 242.63 163.26 242.63 154.92 256.74 153.12 259.72 149.56 259.72 159.64 242.63"/><polygon class="cls-3" points="162.51 276.81 158.89 276.81 167.23 262.71 169.03 259.72 172.59 259.72 162.51 276.81"/><polygon class="cls-2" points="159.01 276.81 162.5 276.81 154.92 262.71 153.12 259.72 149.56 259.72 159.01 276.81"/><polygon class="cls-2" points="163.14 242.63 159.65 242.63 167.23 256.74 169.03 259.72 172.59 259.72 163.14 242.63"/></g></g></svg>