<svg xmlns="http://www.w3.org/2000/svg" xmlns:xlink="http://www.w3.org/1999/xlink" viewBox="0 0 175.75 283.46"><defs><style>.cls-1{fill:url(#linear-gradient);}.cls-2{fill:#ec008c;}.cls-3{fill:#9e1f63;}</style><linearGradient id="linear-gradient" x1="-37.6" y1="214.18" x2="213.35" y2="69.29" gradientUnits="userSpaceOnUse"><stop offset="0.5" stop-color="#414042"/><stop offset="0.68" stop-color="#48484a"/></linearGradient></defs><title>AE</title><g id="Layer_2" data-name="Layer 2"><g id="Layer_1-2" data-name="Layer 1"><rect class="cls-1" width="175.75" height="283.46" rx="5.69" ry="5.69"/><path class="cls-2" d="M38.88,203.7H35.14l1-2.42L85.4,86.94a1.91,1.91,0,0,1,.68-.69c1.13-.58,1.92-.35,2.38.69L137.7,201.28l1,2.42H135l-.34-1L86.93,92,39.22,202.66Z"/><polygon class="cls-3" points="14.71 6.79 18.33 6.79 9.99 20.89 8.2 23.88 4.63 23.88 14.71 6.79"/><polygon class="cls-3" points="17.58 40.97 13.97 40.97 22.3 26.86 24.1 23.88 27.67 23.88 17.58 40.97"/><polygon class="cls-2" points="14.08 40.97 17.57 40.97 9.99 26.86 8.2 23.88 4.63 23.88 14.08 40.97"/><polygon class="cls-2" points="18.21 6.79 14.72 6.79 22.3 20.89 24.1 23.88 27.67 23.88 18.21 6.79"/><polygon class="cls-3" points="157.14 242.76 160.76 242.76 152.42 256.87 150.62 259.86 147.06 259.86 157.14 242.76"/><polygon class="cls-3" points="160.01 276.94 156.39 276.94 164.73 262.84 166.53 259.86 170.09 259.86 160.01 276.94"/><polygon class="cls-2" points="156.51 276.94 160 276.94 152.42 262.84 150.62 259.86 147.06 259.86 156.51 276.94"/><polygon class="cls-2" points="160.64 242.76 157.15 242.76 164.73 256.87 166.53 259.86 170.09 259.86 160.64 242.76"/></g></g></svg>