<svg xmlns="http://www.w3.org/2000/svg" xmlns:xlink="http://www.w3.org/1999/xlink" viewBox="0 0 175.75 283.46"><defs><style>.cls-1{fill:url(#linear-gradient);}.cls-2{fill:#6cc9cb;}.cls-3{fill:#056f77;}</style><linearGradient id="linear-gradient" x1="-35.54" y1="212.98" x2="214.61" y2="68.56" gradientUnits="userSpaceOnUse"><stop offset="0.5" stop-color="#414042"/><stop offset="0.68" stop-color="#48484a"/></linearGradient></defs><title>B3</title><g id="Layer_2" data-name="Layer 2"><g id="Layer_1-2" data-name="Layer 1"><rect class="cls-1" width="175.75" height="283.46" rx="5.69" ry="5.69"/><path class="cls-2" d="M59.06,84.52V82.44h55.7l-1,1.56L85,129.73a34.56,34.56,0,0,1,23.26,9q12.23,11.08,12.23,27.2a36.87,36.87,0,0,1-9.34,24.94q-11.2,13-28,13a39.43,39.43,0,0,1-19.86-5q-12.57-7.28-15.11-20.79L48,176.85h2l.17.87a26.77,26.77,0,0,0,5.6,12.12q9.51,12,27.33,12a35.43,35.43,0,0,0,35.32-35.86,33.29,33.29,0,0,0-8.15-22q-10.7-12.13-27.17-12.13H81.31l1-1.56L111,84.52h-52Z"/><path class="cls-3" d="M27.53,19.73a6.82,6.82,0,0,1-9.64-9.64l-1-1A8.19,8.19,0,0,0,28.5,20.7Z"/><path class="cls-2" d="M27.53,19.73a6.82,6.82,0,0,0-9.64-9.64l-1-1A8.19,8.19,0,0,1,28.5,20.7Z"/><path class="cls-3" d="M18.15,27.14a6.82,6.82,0,0,1-9.64,9.64l-1,1A8.19,8.19,0,1,0,19.12,26.17Z"/><path class="cls-2" d="M18.15,27.14a6.82,6.82,0,0,0-9.64,9.64l-1,1A8.19,8.19,0,0,1,19.12,26.17Z"/><path class="cls-3" d="M36.92,36.78a6.82,6.82,0,0,1-9.64-9.64l-1-1A8.18,8.18,0,1,0,37.88,37.75Z"/><path class="cls-2" d="M36.92,36.78a6.82,6.82,0,0,0-9.64-9.64l-1-1A8.18,8.18,0,0,1,37.88,37.75Z"/><path class="cls-3" d="M156.18,256.33a6.82,6.82,0,0,1-9.64-9.65l-1-1a8.18,8.18,0,0,0,11.58,11.57Z"/><path class="cls-2" d="M156.18,256.33a6.82,6.82,0,1,0-9.64-9.65l-1-1a8.18,8.18,0,1,1,11.58,11.57Z"/><path class="cls-3" d="M146.8,263.74a6.82,6.82,0,1,1-9.65,9.64l-1,1a8.18,8.18,0,0,0,11.57-11.57Z"/><path class="cls-2" d="M146.8,263.74a6.82,6.82,0,0,0-9.65,9.64l-1,1a8.18,8.18,0,1,1,11.57-11.57Z"/><path class="cls-3" d="M165.57,273.38a6.82,6.82,0,0,1-9.65-9.64l-1-1a8.18,8.18,0,0,0,11.57,11.57Z"/><path class="cls-2" d="M165.57,273.38a6.82,6.82,0,1,0-9.65-9.64l-1-1a8.18,8.18,0,1,1,11.57,11.57Z"/></g></g></svg>