<svg xmlns="http://www.w3.org/2000/svg" xmlns:xlink="http://www.w3.org/1999/xlink" viewBox="0 0 175.75 283.46"><defs><style>.cls-1{fill:url(#linear-gradient);}.cls-2{fill:#6cc9cb;}.cls-3{fill:#056f77;}</style><linearGradient id="linear-gradient" x1="-37.6" y1="214.18" x2="213.35" y2="69.29" gradientUnits="userSpaceOnUse"><stop offset="0.5" stop-color="#414042"/><stop offset="0.68" stop-color="#48484a"/></linearGradient></defs><title>B5</title><g id="Layer_2" data-name="Layer 2"><g id="Layer_1-2" data-name="Layer 1"><rect class="cls-1" width="175.75" height="283.46" rx="5.69" ry="5.69"/><path class="cls-2" d="M113.56,81.44v2.08H67L55.5,127a42.82,42.82,0,0,1,3-3.47Q69.76,113,84.36,113q13.92,0,24.62,10.91,12.74,13.51,12.73,34,0,17.66-10,30.66-11,14.38-27.33,14.38a35,35,0,0,1-21.56-7.45q-11.38-8.84-13.42-21.83l-.17-1.21h2l.17.86a32.4,32.4,0,0,0,7.13,15.25q10.19,12.3,25.81,12.3,13.06,0,23.09-10.4,12.22-13,12.23-32.56,0-16.47-9.17-28.76-10.53-14-26.15-14a35,35,0,0,0-16.64,4.33q-11,6.06-14.43,15.41l-.17.87H50.74l.51-1.39L65.17,82.13l.17-.69h48.22Z"/><path class="cls-3" d="M27.52,19.66A6.82,6.82,0,0,1,17.88,10l-1-1A8.19,8.19,0,0,0,28.49,20.63Z"/><path class="cls-2" d="M27.52,19.66A6.82,6.82,0,0,0,17.88,10l-1-1A8.19,8.19,0,0,1,28.49,20.63Z"/><path class="cls-3" d="M18.14,27.07A6.82,6.82,0,0,1,8.5,36.71l-1,1A8.19,8.19,0,0,0,19.11,26.1Z"/><path class="cls-2" d="M18.14,27.07A6.82,6.82,0,0,0,8.5,36.71l-1,1A8.19,8.19,0,0,1,19.11,26.1Z"/><path class="cls-3" d="M36.91,36.71a6.82,6.82,0,0,1-9.64-9.64l-1-1A8.18,8.18,0,0,0,37.87,37.68Z"/><path class="cls-2" d="M36.91,36.71a6.82,6.82,0,0,0-9.64-9.64l-1-1A8.18,8.18,0,0,1,37.87,37.68Z"/><path class="cls-3" d="M156.17,256.26a6.82,6.82,0,0,1-9.64-9.65l-1-1a8.18,8.18,0,0,0,11.58,11.57Z"/><path class="cls-2" d="M156.17,256.26a6.82,6.82,0,1,0-9.64-9.65l-1-1a8.18,8.18,0,1,1,11.58,11.57Z"/><path class="cls-3" d="M146.79,263.66a6.82,6.82,0,0,1-9.65,9.65l-1,1a8.18,8.18,0,1,0,11.57-11.57Z"/><path class="cls-2" d="M146.79,263.66a6.82,6.82,0,1,0-9.65,9.65l-1,1a8.18,8.18,0,0,1,11.57-11.57Z"/><path class="cls-3" d="M165.56,273.31a6.82,6.82,0,0,1-9.65-9.65l-1-1a8.18,8.18,0,1,0,11.57,11.57Z"/><path class="cls-2" d="M165.56,273.31a6.82,6.82,0,1,0-9.65-9.65l-1-1a8.18,8.18,0,0,1,11.57,11.57Z"/></g></g></svg>