<svg xmlns="http://www.w3.org/2000/svg" xmlns:xlink="http://www.w3.org/1999/xlink" viewBox="0 0 175.75 283.46"><defs><style>.cls-1{fill:url(#linear-gradient);}.cls-2{fill:#6cc9cb;}.cls-3{fill:#056f77;}</style><linearGradient id="linear-gradient" x1="-37.6" y1="214.18" x2="213.35" y2="69.29" gradientUnits="userSpaceOnUse"><stop offset="0.5" stop-color="#414042"/><stop offset="0.68" stop-color="#48484a"/></linearGradient></defs><title>B6</title><g id="Layer_2" data-name="Layer 2"><g id="Layer_1-2" data-name="Layer 1"><rect class="cls-1" width="175.75" height="283.46" rx="5.69" ry="5.69"/><path class="cls-2" d="M83.91,80.92v2.25l-.68.35q-8,3.28-15.79,14.38Q53.52,118,50,147.27a47.85,47.85,0,0,1,6.11-10.4q10.69-13.34,26.83-13.34a33.31,33.31,0,0,1,23.43,9.53q12.39,11.79,12.39,30a41.7,41.7,0,0,1-9,26.51Q99,202.88,82.89,202.88A33.46,33.46,0,0,1,60.14,194q-12.57-11.59-13.08-30v-1.21a122.16,122.16,0,0,1,13.59-57.17q10-19.39,21.9-24.25ZM57.25,187.8q10.19,13,25.64,13a30.9,30.9,0,0,0,21.9-9q11.88-11.26,11.89-28.76a38.87,38.87,0,0,0-8.15-24.42q-10.19-13-25.64-13A31.22,31.22,0,0,0,61,134.45Q49.1,145.72,49.1,163A41.24,41.24,0,0,0,57.25,187.8Z"/><path class="cls-3" d="M25.38,18.73a6.82,6.82,0,0,1-9.64-9.64l-1-1A8.19,8.19,0,0,0,26.35,19.7Z"/><path class="cls-2" d="M25.38,18.73a6.82,6.82,0,0,0-9.64-9.64l-1-1A8.19,8.19,0,0,1,26.35,19.7Z"/><path class="cls-3" d="M16,26.14a6.82,6.82,0,1,1-9.65,9.64l-1,1A8.18,8.18,0,0,0,17,25.17Z"/><path class="cls-2" d="M16,26.14a6.82,6.82,0,0,0-9.65,9.64l-1,1A8.18,8.18,0,0,1,17,25.17Z"/><path class="cls-3" d="M34.77,35.78a6.82,6.82,0,1,1-9.65-9.64l-1-1A8.18,8.18,0,0,0,35.73,36.75Z"/><path class="cls-2" d="M34.77,35.78a6.82,6.82,0,0,0-9.65-9.64l-1-1A8.18,8.18,0,0,1,35.73,36.75Z"/><path class="cls-3" d="M154,255.33a6.82,6.82,0,0,1-9.64-9.65l-1-1A8.18,8.18,0,0,0,155,256.29Z"/><path class="cls-2" d="M154,255.33a6.82,6.82,0,1,0-9.64-9.65l-1-1A8.18,8.18,0,0,1,155,256.29Z"/><path class="cls-3" d="M144.65,262.74a6.82,6.82,0,0,1-9.65,9.64l-1,1a8.18,8.18,0,0,0,11.57-11.57Z"/><path class="cls-2" d="M144.65,262.74a6.82,6.82,0,1,0-9.65,9.64l-1,1a8.18,8.18,0,1,1,11.57-11.57Z"/><path class="cls-3" d="M163.41,272.38a6.82,6.82,0,0,1-9.64-9.64l-1-1a8.18,8.18,0,0,0,11.58,11.57Z"/><path class="cls-2" d="M163.41,272.38a6.82,6.82,0,0,0-9.64-9.64l-1-1a8.18,8.18,0,1,1,11.58,11.57Z"/></g></g></svg>