<svg xmlns="http://www.w3.org/2000/svg" xmlns:xlink="http://www.w3.org/1999/xlink" viewBox="0 0 175.75 283.46"><defs><style>.cls-1{fill:url(#linear-gradient);}.cls-2{fill:#6cc9cb;}.cls-3{fill:#056f77;}</style><linearGradient id="linear-gradient" x1="-37.6" y1="214.18" x2="213.35" y2="69.29" gradientUnits="userSpaceOnUse"><stop offset="0.5" stop-color="#414042"/><stop offset="0.68" stop-color="#48484a"/></linearGradient></defs><title>B7</title><g id="Layer_2" data-name="Layer 2"><g id="Layer_1-2" data-name="Layer 1"><rect class="cls-1" width="175.75" height="283.46" rx="5.69" ry="5.69"/><path class="cls-2" d="M59.39,83.52V81.44h69.45l-1,1.56q-9.51,15.42-16.64,28.58Q86.06,157.66,77.56,202l-.17.87h-2l.16-1.22a292.35,292.35,0,0,1,8.32-32.91q11.89-37.59,41.26-85.23H59.39Z"/><path class="cls-3" d="M26.22,19.73a6.82,6.82,0,0,1-9.64-9.64l-1-1A8.19,8.19,0,0,0,27.19,20.7Z"/><path class="cls-2" d="M26.22,19.73a6.82,6.82,0,0,0-9.64-9.64l-1-1A8.19,8.19,0,0,1,27.19,20.7Z"/><path class="cls-3" d="M16.83,27.14a6.82,6.82,0,0,1-9.64,9.64l-1,1A8.19,8.19,0,1,0,17.8,26.17Z"/><path class="cls-2" d="M16.83,27.14a6.82,6.82,0,0,0-9.64,9.64l-1,1A8.19,8.19,0,0,1,17.8,26.17Z"/><path class="cls-3" d="M35.6,36.78A6.82,6.82,0,0,1,26,27.14l-1-1A8.19,8.19,0,0,0,36.57,37.75Z"/><path class="cls-2" d="M35.6,36.78A6.82,6.82,0,0,0,26,27.14l-1-1A8.19,8.19,0,1,1,36.57,37.75Z"/><path class="cls-3" d="M154.87,256.33a6.82,6.82,0,0,1-9.65-9.65l-1-1a8.18,8.18,0,0,0,11.57,11.57Z"/><path class="cls-2" d="M154.87,256.33a6.82,6.82,0,1,0-9.65-9.65l-1-1a8.18,8.18,0,1,1,11.57,11.57Z"/><path class="cls-3" d="M145.48,263.74a6.82,6.82,0,0,1-9.64,9.64l-1,1a8.18,8.18,0,0,0,11.58-11.57Z"/><path class="cls-2" d="M145.48,263.74a6.82,6.82,0,0,0-9.64,9.64l-1,1a8.18,8.18,0,1,1,11.58-11.57Z"/><path class="cls-3" d="M164.25,273.38a6.82,6.82,0,0,1-9.64-9.64l-1-1a8.18,8.18,0,0,0,11.58,11.57Z"/><path class="cls-2" d="M164.25,273.38a6.82,6.82,0,0,0-9.64-9.64l-1-1a8.18,8.18,0,1,1,11.58,11.57Z"/></g></g></svg>