<svg xmlns="http://www.w3.org/2000/svg" xmlns:xlink="http://www.w3.org/1999/xlink" viewBox="0 0 175.75 283.46"><defs><style>.cls-1{fill:url(#linear-gradient);}.cls-2{fill:#6cc9cb;}.cls-3{fill:#056f77;}</style><linearGradient id="linear-gradient" x1="-37.6" y1="214.18" x2="213.35" y2="69.29" gradientUnits="userSpaceOnUse"><stop offset="0.5" stop-color="#414042"/><stop offset="0.68" stop-color="#48484a"/></linearGradient></defs><title>BB</title><g id="Layer_2" data-name="Layer 2"><g id="Layer_1-2" data-name="Layer 1"><rect class="cls-1" width="175.75" height="283.46" rx="5.69" ry="5.69"/><path class="cls-2" d="M104.49,85.4h3.39v87.66a28.14,28.14,0,0,1-7.47,18.54q-10.35,11.61-26.49,11.6a35.85,35.85,0,0,1-22.07-7.1q-11.72-9-11.88-23v-1.73h3.39v1.73A25,25,0,0,0,49.47,189q9,10.74,24.45,10.74a32,32,0,0,0,19.53-6.41q10.86-8.15,11-20.27V85.4Z"/><path class="cls-3" d="M26.22,20.23a6.82,6.82,0,0,1-9.64-9.64l-1-1A8.19,8.19,0,0,0,27.19,21.2Z"/><path class="cls-2" d="M26.22,20.23a6.82,6.82,0,0,0-9.64-9.64l-1-1A8.19,8.19,0,0,1,27.19,21.2Z"/><path class="cls-3" d="M16.83,27.64a6.82,6.82,0,0,1-9.64,9.64l-1,1A8.19,8.19,0,1,0,17.8,26.67Z"/><path class="cls-2" d="M16.83,27.64a6.82,6.82,0,0,0-9.64,9.64l-1,1A8.19,8.19,0,0,1,17.8,26.67Z"/><path class="cls-3" d="M35.6,37.28A6.82,6.82,0,0,1,26,27.64l-1-1A8.19,8.19,0,0,0,36.57,38.25Z"/><path class="cls-2" d="M35.6,37.28A6.82,6.82,0,0,0,26,27.64l-1-1A8.19,8.19,0,1,1,36.57,38.25Z"/><path class="cls-3" d="M154.87,256.83a6.82,6.82,0,0,1-9.65-9.65l-1-1a8.18,8.18,0,0,0,11.57,11.57Z"/><path class="cls-2" d="M154.87,256.83a6.82,6.82,0,1,0-9.65-9.65l-1-1a8.18,8.18,0,1,1,11.57,11.57Z"/><path class="cls-3" d="M145.48,264.24a6.82,6.82,0,0,1-9.64,9.64l-1,1a8.18,8.18,0,0,0,11.58-11.57Z"/><path class="cls-2" d="M145.48,264.24a6.82,6.82,0,0,0-9.64,9.64l-1,1a8.18,8.18,0,1,1,11.58-11.57Z"/><path class="cls-3" d="M164.25,273.88a6.82,6.82,0,0,1-9.64-9.64l-1-1a8.18,8.18,0,0,0,11.58,11.57Z"/><path class="cls-2" d="M164.25,273.88a6.82,6.82,0,0,0-9.64-9.64l-1-1a8.18,8.18,0,1,1,11.58,11.57Z"/></g></g></svg>