<svg xmlns="http://www.w3.org/2000/svg" xmlns:xlink="http://www.w3.org/1999/xlink" viewBox="0 0 175.75 283.46"><defs><style>.cls-1{fill:url(#linear-gradient);}.cls-2{fill:#6cc9cb;}.cls-3{fill:#056f77;}</style><linearGradient id="linear-gradient" x1="-37.6" y1="214.18" x2="213.35" y2="69.29" gradientUnits="userSpaceOnUse"><stop offset="0.5" stop-color="#414042"/><stop offset="0.68" stop-color="#48484a"/></linearGradient></defs><title>BC</title><g id="Layer_2" data-name="Layer 2"><g id="Layer_1-2" data-name="Layer 1"><rect class="cls-1" width="175.75" height="283.46" rx="5.69" ry="5.69"/><path class="cls-2" d="M48.16,101.86Q63.1,85.41,83.47,85.4q20.72.18,35.66,16.81,15.28,17.33,15.28,42.09,0,23.22-13.75,40.37l13.41,15.59,2.38,2.94h-4.59l-.5-.52-13.08-15.24Q103.51,203,83.47,203.2,62.94,203,47.82,186.4q-15.28-17.33-15.28-42.1Q32.71,119.54,48.16,101.86ZM50,183.63Q64,199.74,83.47,199.74q18.68-.18,32.43-14.9l-9.16-10.74-2.38-2.95h4.58l.51.52,8.83,10.4Q130.85,166.13,131,144.3q0-22.86-13.93-39.15T83.47,88.87q-19,.16-32.94,15.41-14.6,16.47-14.6,40Q35.93,167.34,50,183.63Z"/><path class="cls-3" d="M28.37,20.23a6.82,6.82,0,0,1-9.64-9.64l-1-1A8.19,8.19,0,0,0,29.34,21.2Z"/><path class="cls-2" d="M28.37,20.23a6.82,6.82,0,0,0-9.64-9.64l-1-1A8.19,8.19,0,0,1,29.34,21.2Z"/><path class="cls-3" d="M19,27.64a6.82,6.82,0,0,1-9.65,9.64l-1,1A8.18,8.18,0,0,0,20,26.67Z"/><path class="cls-2" d="M19,27.64a6.82,6.82,0,0,0-9.65,9.64l-1,1A8.18,8.18,0,1,1,20,26.67Z"/><path class="cls-3" d="M37.76,37.28a6.82,6.82,0,0,1-9.65-9.64l-1-1A8.18,8.18,0,0,0,38.72,38.25Z"/><path class="cls-2" d="M37.76,37.28a6.82,6.82,0,1,0-9.65-9.64l-1-1A8.18,8.18,0,1,1,38.72,38.25Z"/><path class="cls-3" d="M157,256.83a6.82,6.82,0,1,1-9.64-9.65l-1-1A8.18,8.18,0,0,0,158,257.79Z"/><path class="cls-2" d="M157,256.83a6.82,6.82,0,0,0-9.64-9.65l-1-1A8.18,8.18,0,0,1,158,257.79Z"/><path class="cls-3" d="M147.64,264.24a6.82,6.82,0,0,1-9.65,9.64l-1,1a8.18,8.18,0,0,0,11.57-11.57Z"/><path class="cls-2" d="M147.64,264.24a6.82,6.82,0,0,0-9.65,9.64l-1,1a8.18,8.18,0,1,1,11.57-11.57Z"/><path class="cls-3" d="M166.4,273.88a6.82,6.82,0,1,1-9.64-9.64l-1-1a8.18,8.18,0,0,0,11.58,11.57Z"/><path class="cls-2" d="M166.4,273.88a6.82,6.82,0,0,0-9.64-9.64l-1-1a8.18,8.18,0,1,1,11.58,11.57Z"/></g></g></svg>