<svg xmlns="http://www.w3.org/2000/svg" xmlns:xlink="http://www.w3.org/1999/xlink" viewBox="0 0 175.75 283.46"><defs><style>.cls-1{fill:url(#linear-gradient);}.cls-2{fill:#6cc9cb;}.cls-3{fill:#056f77;}</style><linearGradient id="linear-gradient" x1="-37.6" y1="214.18" x2="213.35" y2="69.29" gradientUnits="userSpaceOnUse"><stop offset="0.5" stop-color="#414042"/><stop offset="0.68" stop-color="#48484a"/></linearGradient></defs><title>BD</title><g id="Layer_2" data-name="Layer 2"><g id="Layer_1-2" data-name="Layer 1"><rect class="cls-1" width="175.75" height="283.46" rx="5.69" ry="5.69"/><path class="cls-2" d="M54.51,146.4v57.17h-3.4V85.77h3.4v57.17H71.66l58.06-56.65.51-.52h4.93l-3.06,2.94-57.39,56,57.39,56,3.06,2.95h-4.93l-.51-.52L71.66,146.4Z"/><path class="cls-3" d="M28.37,20.6A6.82,6.82,0,0,1,18.73,11l-1-1A8.18,8.18,0,0,0,29.34,21.56Z"/><path class="cls-2" d="M28.37,20.6A6.82,6.82,0,1,0,18.73,11l-1-1A8.18,8.18,0,1,1,29.34,21.56Z"/><path class="cls-3" d="M19,28a6.82,6.82,0,1,1-9.65,9.65l-1,1A8.18,8.18,0,0,0,20,27Z"/><path class="cls-2" d="M19,28a6.82,6.82,0,0,0-9.65,9.65l-1,1A8.18,8.18,0,0,1,20,27Z"/><path class="cls-3" d="M37.76,37.65A6.82,6.82,0,0,1,28.11,28l-1-1A8.18,8.18,0,0,0,38.72,38.61Z"/><path class="cls-2" d="M37.76,37.65A6.82,6.82,0,0,0,28.11,28l-1-1A8.18,8.18,0,0,1,38.72,38.61Z"/><path class="cls-3" d="M157,257.19a6.82,6.82,0,1,1-9.64-9.64l-1-1A8.19,8.19,0,0,0,158,258.16Z"/><path class="cls-2" d="M157,257.19a6.82,6.82,0,0,0-9.64-9.64l-1-1A8.19,8.19,0,0,1,158,258.16Z"/><path class="cls-3" d="M147.64,264.6a6.82,6.82,0,0,1-9.65,9.64l-1,1a8.18,8.18,0,0,0,11.57-11.58Z"/><path class="cls-2" d="M147.64,264.6a6.82,6.82,0,0,0-9.65,9.64l-1,1a8.18,8.18,0,1,1,11.57-11.58Z"/><path class="cls-3" d="M166.4,274.24a6.82,6.82,0,1,1-9.64-9.64l-1-1a8.19,8.19,0,0,0,11.58,11.58Z"/><path class="cls-2" d="M166.4,274.24a6.82,6.82,0,0,0-9.64-9.64l-1-1a8.19,8.19,0,1,1,11.58,11.58Z"/></g></g></svg>