<svg xmlns="http://www.w3.org/2000/svg" xmlns:xlink="http://www.w3.org/1999/xlink" viewBox="0 0 175.75 283.46"><defs><style>.cls-1{fill:url(#linear-gradient);}.cls-2{fill:#6cc9cb;}.cls-3{fill:#056f77;}</style><linearGradient id="linear-gradient" x1="-37.6" y1="214.18" x2="213.35" y2="69.29" gradientUnits="userSpaceOnUse"><stop offset="0.5" stop-color="#414042"/><stop offset="0.68" stop-color="#48484a"/></linearGradient></defs><title>BE</title><g id="Layer_2" data-name="Layer 2"><g id="Layer_1-2" data-name="Layer 1"><rect class="cls-1" width="175.75" height="283.46" rx="5.69" ry="5.69"/><path class="cls-2" d="M40.41,203.7H36.68l1-2.42L86.94,86.94a1.91,1.91,0,0,1,.68-.69q1.69-.87,2.37.69l49.24,114.34,1,2.42h-3.73l-.34-1L88.47,92,40.75,202.66Z"/><path class="cls-3" d="M28.37,20.73a6.82,6.82,0,0,1-9.64-9.64l-1-1A8.19,8.19,0,0,0,29.34,21.7Z"/><path class="cls-2" d="M28.37,20.73a6.82,6.82,0,0,0-9.64-9.64l-1-1A8.19,8.19,0,0,1,29.34,21.7Z"/><path class="cls-3" d="M19,28.14a6.82,6.82,0,0,1-9.65,9.64l-1,1A8.18,8.18,0,0,0,20,27.17Z"/><path class="cls-2" d="M19,28.14a6.82,6.82,0,0,0-9.65,9.64l-1,1A8.18,8.18,0,1,1,20,27.17Z"/><path class="cls-3" d="M37.76,37.78a6.82,6.82,0,0,1-9.65-9.64l-1-1A8.18,8.18,0,0,0,38.72,38.75Z"/><path class="cls-2" d="M37.76,37.78a6.82,6.82,0,1,0-9.65-9.64l-1-1A8.18,8.18,0,1,1,38.72,38.75Z"/><path class="cls-3" d="M157,257.33a6.82,6.82,0,1,1-9.64-9.65l-1-1A8.18,8.18,0,0,0,158,258.29Z"/><path class="cls-2" d="M157,257.33a6.82,6.82,0,0,0-9.64-9.65l-1-1A8.18,8.18,0,0,1,158,258.29Z"/><path class="cls-3" d="M147.64,264.74a6.82,6.82,0,0,1-9.65,9.64l-1,1a8.18,8.18,0,0,0,11.57-11.57Z"/><path class="cls-2" d="M147.64,264.74a6.82,6.82,0,0,0-9.65,9.64l-1,1a8.18,8.18,0,1,1,11.57-11.57Z"/><path class="cls-3" d="M166.4,274.38a6.82,6.82,0,1,1-9.64-9.64l-1-1a8.18,8.18,0,0,0,11.58,11.57Z"/><path class="cls-2" d="M166.4,274.38a6.82,6.82,0,0,0-9.64-9.64l-1-1a8.18,8.18,0,1,1,11.58,11.57Z"/></g></g></svg>