<svg xmlns="http://www.w3.org/2000/svg" xmlns:xlink="http://www.w3.org/1999/xlink" viewBox="0 0 175.75 283.46"><defs><style>.cls-1{fill:url(#linear-gradient);}.cls-2{fill:#ec008c;}.cls-3{fill:#9e1f63;}</style><linearGradient id="linear-gradient" x1="-37.6" y1="214.18" x2="213.35" y2="69.29" gradientUnits="userSpaceOnUse"><stop offset="0.5" stop-color="#414042"/><stop offset="0.68" stop-color="#48484a"/></linearGradient></defs><title>C3</title><g id="Layer_2" data-name="Layer 2"><g id="Layer_1-2" data-name="Layer 1"><rect class="cls-1" width="175.75" height="283.46" rx="5.69" ry="5.69"/><path class="cls-2" d="M65.73,73.68V71.6h55.69l-1,1.56L91.71,118.89q12.9,0,23.26,9Q127.2,139,127.19,155.1a36.85,36.85,0,0,1-9.34,25q-11.2,13-28,13A39.46,39.46,0,0,1,70,188q-12.55-7.29-15.11-20.79L54.69,166h2l.17.87A27,27,0,0,0,62.5,179Q72,191,89.84,191a35.43,35.43,0,0,0,35.31-35.86,33.24,33.24,0,0,0-8.15-22Q106.31,121,89.84,121H88l1-1.56,28.69-45.73H65.73Z"/><polygon class="cls-3" points="24.86 38.08 24.86 31.83 12.25 11.87 24.86 14.03 9.51 7.79 6.8 7.79 24.86 38.08"/><polygon class="cls-2" points="24.86 38.08 24.86 31.83 37.48 11.87 24.86 14.03 40.21 7.79 42.92 7.79 24.86 38.08"/><polygon class="cls-3" points="150.89 275.68 150.89 269.43 138.27 249.47 150.89 251.62 135.54 245.38 132.83 245.38 150.89 275.68"/><polygon class="cls-2" points="150.89 275.68 150.89 269.43 163.5 249.47 150.89 251.62 166.23 245.38 168.95 245.38 150.89 275.68"/></g></g></svg>