<svg xmlns="http://www.w3.org/2000/svg" xmlns:xlink="http://www.w3.org/1999/xlink" viewBox="0 0 175.75 283.46"><defs><style>.cls-1{fill:url(#linear-gradient);}.cls-2{fill:#ec008c;}.cls-3{fill:#9e1f63;}</style><linearGradient id="linear-gradient" x1="-37.6" y1="214.18" x2="213.35" y2="69.29" gradientUnits="userSpaceOnUse"><stop offset="0.5" stop-color="#414042"/><stop offset="0.68" stop-color="#48484a"/></linearGradient></defs><title>C4</title><g id="Layer_2" data-name="Layer 2"><g id="Layer_1-2" data-name="Layer 1"><rect class="cls-1" width="175.75" height="283.46" rx="5.69" ry="5.69"/><path class="cls-2" d="M89.33,71.6h2.21L91,73,55,160.82l57.05.34v-58.9h2v58.9h13.07v2.08H114.12V193h-2v-29.8L53.5,162.9H52l.5-1.39L89,72.29Z"/><polygon class="cls-3" points="24.86 38.08 24.86 31.83 12.25 11.87 24.86 14.03 9.51 7.79 6.8 7.79 24.86 38.08"/><polygon class="cls-2" points="24.86 38.08 24.86 31.83 37.48 11.87 24.86 14.03 40.21 7.79 42.92 7.79 24.86 38.08"/><polygon class="cls-3" points="150.89 275.68 150.89 269.43 138.27 249.47 150.89 251.62 135.54 245.38 132.83 245.38 150.89 275.68"/><polygon class="cls-2" points="150.89 275.68 150.89 269.43 163.5 249.47 150.89 251.62 166.23 245.38 168.95 245.38 150.89 275.68"/></g></g></svg>