<svg xmlns="http://www.w3.org/2000/svg" xmlns:xlink="http://www.w3.org/1999/xlink" viewBox="0 0 175.75 283.46"><defs><style>.cls-1{fill:url(#linear-gradient);}.cls-2{fill:#ec008c;}.cls-3{fill:#9e1f63;}</style><linearGradient id="linear-gradient" x1="-37.6" y1="214.18" x2="213.35" y2="69.29" gradientUnits="userSpaceOnUse"><stop offset="0.5" stop-color="#414042"/><stop offset="0.68" stop-color="#48484a"/></linearGradient></defs><title>C7</title><g id="Layer_2" data-name="Layer 2"><g id="Layer_1-2" data-name="Layer 1"><rect class="cls-1" width="175.75" height="283.46" rx="5.69" ry="5.69"/><path class="cls-2" d="M53.15,82.81V80.73H122.6l-1,1.56q-9.51,15.42-16.64,28.58Q79.8,157,71.32,201.3l-.17.87h-2l.17-1.21A292.52,292.52,0,0,1,77.6,168q11.88-37.59,41.26-85.23H53.15Z"/><polygon class="cls-3" points="23.57 38.74 23.57 32.49 10.95 12.53 23.57 14.69 8.22 8.45 5.5 8.45 23.57 38.74"/><polygon class="cls-2" points="23.57 38.74 23.57 32.49 36.18 12.53 23.57 14.69 38.91 8.45 41.63 8.45 23.57 38.74"/><polygon class="cls-3" points="149.59 276.34 149.59 270.09 136.98 250.13 149.59 252.28 134.25 246.04 131.53 246.04 149.59 276.34"/><polygon class="cls-2" points="149.59 276.34 149.59 270.09 162.21 250.13 149.59 252.28 164.94 246.04 167.65 246.04 149.59 276.34"/></g></g></svg>