<svg xmlns="http://www.w3.org/2000/svg" xmlns:xlink="http://www.w3.org/1999/xlink" viewBox="0 0 175.75 283.46"><defs><style>.cls-1{fill:url(#linear-gradient);}.cls-2{fill:#ec008c;}.cls-3{fill:#9e1f63;}</style><linearGradient id="linear-gradient" x1="-37.6" y1="214.18" x2="213.35" y2="69.29" gradientUnits="userSpaceOnUse"><stop offset="0.5" stop-color="#414042"/><stop offset="0.68" stop-color="#48484a"/></linearGradient></defs><title>CF</title><g id="Layer_2" data-name="Layer 2"><g id="Layer_1-2" data-name="Layer 1"><rect class="cls-1" width="175.75" height="283.46" rx="5.69" ry="5.69"/><path class="cls-2" d="M55.94,103.28h-2v-1q0-10.74,7.81-19.4,10.86-11.43,28-11.43a38.63,38.63,0,0,1,23.43,7.45q12.39,9.18,12.4,23.38a33,33,0,0,1-4.42,16.11q-6.28,11.27-25.64,26.16Q76,159.77,73.6,161.84q-17.65,15.24-17.66,28.93h69.62v2.08H53.91v-1a30.84,30.84,0,0,1,4.24-15.08q5.77-10.39,24.62-24.94Q102,136.72,105,133.94q18.51-16.45,18.51-31.7a26.1,26.1,0,0,0-7.13-17.84Q106.2,73.48,89.73,73.49a36.88,36.88,0,0,0-21.9,6.75q-11.89,8.67-11.89,22Z"/><polygon class="cls-3" points="24.45 38.76 24.45 32.51 11.84 12.55 24.45 14.71 9.11 8.46 6.39 8.46 24.45 38.76"/><polygon class="cls-2" points="24.45 38.76 24.45 32.51 37.06 12.55 24.45 14.71 39.8 8.46 42.51 8.46 24.45 38.76"/><polygon class="cls-3" points="150.48 276.36 150.48 270.11 137.86 250.15 150.48 252.3 135.13 246.06 132.42 246.06 150.48 276.36"/><polygon class="cls-2" points="150.48 276.36 150.48 270.11 163.09 250.15 150.48 252.3 165.82 246.06 168.54 246.06 150.48 276.36"/></g></g></svg>