<svg xmlns="http://www.w3.org/2000/svg" xmlns:xlink="http://www.w3.org/1999/xlink" viewBox="0 0 175.75 283.46"><defs><style>.cls-1{fill:url(#linear-gradient);}.cls-2{fill:#056f77;}.cls-3{fill:#6cc9cb;}</style><linearGradient id="linear-gradient" x1="-37.6" y1="214.18" x2="213.35" y2="69.29" gradientUnits="userSpaceOnUse"><stop offset="0.5" stop-color="#414042"/><stop offset="0.68" stop-color="#48484a"/></linearGradient></defs><title>D4</title><g id="Layer_2" data-name="Layer 2"><g id="Layer_1-2" data-name="Layer 1"><rect class="cls-1" width="175.75" height="283.46" rx="5.69" ry="5.69"/><polygon class="cls-2" points="24.87 4.27 24.87 8.5 41.83 37.88 24.87 37.88 24.87 39.6 45.28 39.6 24.87 4.27"/><polygon class="cls-3" points="24.87 4.27 24.87 8.5 7.92 37.88 24.87 37.88 24.87 39.6 4.47 39.6 24.87 4.27"/><polygon class="cls-2" points="150.87 239.58 150.87 243.82 167.83 273.19 150.87 273.19 150.87 274.92 171.28 274.92 150.87 239.58"/><polygon class="cls-3" points="150.87 239.58 150.87 243.82 133.92 273.19 150.87 273.19 150.87 274.92 130.47 274.92 150.87 239.58"/><path class="cls-3" d="M82.66,79.73h2.21l-.51,1.39L48.37,169l57.05.34v-58.9h2v58.9h13.08v2.08H107.45v29.8h-2v-29.8L46.84,171H45.31l.51-1.39,36.5-89.22Z"/></g></g></svg>