<svg xmlns="http://www.w3.org/2000/svg" xmlns:xlink="http://www.w3.org/1999/xlink" viewBox="0 0 175.75 283.46"><defs><style>.cls-1{fill:url(#linear-gradient);}.cls-2{fill:#056f77;}.cls-3{fill:#6cc9cb;}</style><linearGradient id="linear-gradient" x1="-37.6" y1="214.18" x2="213.35" y2="69.29" gradientUnits="userSpaceOnUse"><stop offset="0.5" stop-color="#414042"/><stop offset="0.68" stop-color="#48484a"/></linearGradient></defs><title>D7</title><g id="Layer_2" data-name="Layer 2"><g id="Layer_1-2" data-name="Layer 1"><rect class="cls-1" width="175.75" height="283.46" rx="5.69" ry="5.69"/><polygon class="cls-2" points="23.43 6.41 23.43 10.64 40.39 40.02 23.43 40.02 23.43 41.74 43.83 41.74 23.43 6.41"/><polygon class="cls-3" points="23.43 6.41 23.43 10.64 6.47 40.02 23.43 40.02 23.43 41.74 3.03 41.74 23.43 6.41"/><polygon class="cls-2" points="149.43 241.72 149.43 245.96 166.39 275.33 149.43 275.33 149.43 277.06 169.83 277.06 149.43 241.72"/><polygon class="cls-3" points="149.43 241.72 149.43 245.96 132.47 275.33 149.43 275.33 149.43 277.06 129.03 277.06 149.43 241.72"/><path class="cls-3" d="M53.15,83.09V81H122.6l-1,1.56Q112.07,98,104.94,111.16,79.8,157.24,71.32,201.59l-.17.86h-2l.17-1.21a293.06,293.06,0,0,1,8.32-32.92q11.88-37.59,41.26-85.23H53.15Z"/></g></g></svg>