<svg xmlns="http://www.w3.org/2000/svg" xmlns:xlink="http://www.w3.org/1999/xlink" viewBox="0 0 175.75 283.46"><defs><style>.cls-1{fill:url(#linear-gradient);}.cls-2{fill:#056f77;}.cls-3{fill:#6cc9cb;}</style><linearGradient id="linear-gradient" x1="-37.6" y1="214.18" x2="213.35" y2="69.29" gradientUnits="userSpaceOnUse"><stop offset="0.5" stop-color="#414042"/><stop offset="0.68" stop-color="#48484a"/></linearGradient></defs><title>D9</title><g id="Layer_2" data-name="Layer 2"><g id="Layer_1-2" data-name="Layer 1"><rect class="cls-1" width="175.75" height="283.46" rx="5.69" ry="5.69"/><polygon class="cls-2" points="23.32 3.2 23.32 7.44 40.27 36.81 23.32 36.81 23.32 38.54 43.72 38.54 23.32 3.2"/><polygon class="cls-3" points="23.32 3.2 23.32 7.44 6.36 36.81 23.32 36.81 23.32 38.54 2.91 38.54 23.32 3.2"/><polygon class="cls-2" points="149.31 238.52 149.31 242.75 166.27 272.13 149.31 272.13 149.31 273.86 169.72 273.86 149.31 238.52"/><polygon class="cls-3" points="149.31 238.52 149.31 242.75 132.36 272.13 149.31 272.13 149.31 273.86 128.91 273.86 149.31 238.52"/><path class="cls-3" d="M118.66,119.38v.7a42.63,42.63,0,0,1-2.21,12.47q-6.63,23.91-32.77,68.6l-.34.52H81l1-1.56q20.2-34.81,28.53-56.3a9.78,9.78,0,0,0-.85,1q-10.53,13-26.66,13a33.86,33.86,0,0,1-23.6-9.35Q47,136.88,47,119.21A40.19,40.19,0,0,1,55.84,93.4q10.69-13.17,27-13.17a33.46,33.46,0,0,1,22.75,8.84q12.57,11.09,13.08,29.1v1.21ZM108.47,95.3q-10-13-25.64-13a31.19,31.19,0,0,0-21.9,8.84Q49,102.06,49,119.21a37.69,37.69,0,0,0,8.15,23.91q10,12.65,25.81,12.64a31.85,31.85,0,0,0,14.09-3.29q13.08-6.58,17.66-21.31a49.93,49.93,0,0,0,1.87-11.08v-.87A39.08,39.08,0,0,0,108.47,95.3Z"/></g></g></svg>