<svg xmlns="http://www.w3.org/2000/svg" xmlns:xlink="http://www.w3.org/1999/xlink" viewBox="0 0 175.75 283.46"><defs><style>.cls-1{fill:url(#linear-gradient);}.cls-2{fill:#056f77;}.cls-3{fill:#6cc9cb;}</style><linearGradient id="linear-gradient" x1="-37.6" y1="214.18" x2="213.35" y2="69.29" gradientUnits="userSpaceOnUse"><stop offset="0.5" stop-color="#414042"/><stop offset="0.68" stop-color="#48484a"/></linearGradient></defs><title>DA</title><g id="Layer_2" data-name="Layer 2"><g id="Layer_1-2" data-name="Layer 1"><rect class="cls-1" width="175.75" height="283.46" rx="5.69" ry="5.69"/><polygon class="cls-2" points="22.64 3.2 22.64 7.44 39.6 36.81 22.64 36.81 22.64 38.54 43.04 38.54 22.64 3.2"/><polygon class="cls-3" points="22.64 3.2 22.64 7.44 5.68 36.81 22.64 36.81 22.64 38.54 2.24 38.54 22.64 3.2"/><polygon class="cls-2" points="148.64 238.52 148.64 242.75 165.6 272.13 148.64 272.13 148.64 273.86 169.04 273.86 148.64 238.52"/><polygon class="cls-3" points="148.64 238.52 148.64 242.75 131.68 272.13 148.64 272.13 148.64 273.86 128.24 273.86 148.64 238.52"/><path class="cls-3" d="M32.32,109.48,47.93,81l.17-.52h1.7V201.76h-2V85.51L34.54,109.59Z"/><path class="cls-3" d="M77.82,97.12Q88.34,80.32,103,80.32q12.9.17,22.92,14.38,12.56,18.18,12.56,46.25,0,26-11,44Q117.2,201.77,103,201.76q-13.24-.18-23.44-14.38Q66.79,169.19,66.78,141,66.78,115.14,77.82,97.12Zm1,85.58q10,17,24.11,17,12.22-.18,21.73-14Q136.4,168,136.39,141q0-24.25-10-41.58-9.69-17-23.43-17-12.74.16-22.42,14.2Q68.82,114.1,68.82,141,68.82,165.21,78.84,182.7Z"/></g></g></svg>