<svg xmlns="http://www.w3.org/2000/svg" xmlns:xlink="http://www.w3.org/1999/xlink" viewBox="0 0 175.75 283.46"><defs><style>.cls-1{fill:url(#linear-gradient);}.cls-2{fill:#056f77;}.cls-3{fill:#6cc9cb;}</style><linearGradient id="linear-gradient" x1="-37.6" y1="214.18" x2="213.35" y2="69.29" gradientUnits="userSpaceOnUse"><stop offset="0.5" stop-color="#414042"/><stop offset="0.68" stop-color="#48484a"/></linearGradient></defs><title>DB</title><g id="Layer_2" data-name="Layer 2"><g id="Layer_1-2" data-name="Layer 1"><rect class="cls-1" width="175.75" height="283.46" rx="5.69" ry="5.69"/><polygon class="cls-2" points="23.43 3.2 23.43 7.44 40.39 36.81 23.43 36.81 23.43 38.54 43.83 38.54 23.43 3.2"/><polygon class="cls-3" points="23.43 3.2 23.43 7.44 6.47 36.81 23.43 36.81 23.43 38.54 3.03 38.54 23.43 3.2"/><polygon class="cls-2" points="149.43 238.52 149.43 242.75 166.39 272.13 149.43 272.13 149.43 273.86 169.83 273.86 149.43 238.52"/><polygon class="cls-3" points="149.43 238.52 149.43 242.75 132.47 272.13 149.43 272.13 149.43 273.86 129.03 273.86 149.43 238.52"/><path class="cls-3" d="M104.49,83.7h3.39v87.65a28.12,28.12,0,0,1-7.47,18.54Q90.06,201.5,73.92,201.5a35.86,35.86,0,0,1-22.07-7.11q-11.72-9-11.88-23v-1.73h3.39v1.73a25,25,0,0,0,6.11,15.94Q58.47,198,73.92,198a32,32,0,0,0,19.53-6.41q10.86-8.13,11-20.27V83.7Z"/></g></g></svg>