<svg xmlns="http://www.w3.org/2000/svg" xmlns:xlink="http://www.w3.org/1999/xlink" viewBox="0 0 175.75 283.46"><defs><style>.cls-1{fill:url(#linear-gradient);}.cls-2{fill:#056f77;}.cls-3{fill:#6cc9cb;}</style><linearGradient id="linear-gradient" x1="-37.6" y1="214.18" x2="213.35" y2="69.29" gradientUnits="userSpaceOnUse"><stop offset="0.5" stop-color="#414042"/><stop offset="0.68" stop-color="#48484a"/></linearGradient></defs><title>DC</title><g id="Layer_2" data-name="Layer 2"><g id="Layer_1-2" data-name="Layer 1"><rect class="cls-1" width="175.75" height="283.46" rx="5.69" ry="5.69"/><polygon class="cls-2" points="24.87 3.2 24.87 7.44 41.83 36.81 24.87 36.81 24.87 38.54 45.28 38.54 24.87 3.2"/><polygon class="cls-3" points="24.87 3.2 24.87 7.44 7.92 36.81 24.87 36.81 24.87 38.54 4.47 38.54 24.87 3.2"/><polygon class="cls-2" points="150.87 238.52 150.87 242.75 167.83 272.13 150.87 272.13 150.87 273.86 171.28 273.86 150.87 238.52"/><polygon class="cls-3" points="150.87 238.52 150.87 242.75 133.92 272.13 150.87 272.13 150.87 273.86 130.47 273.86 150.87 238.52"/><path class="cls-3" d="M48.16,100.15Q63.1,83.7,83.47,83.7q20.72.17,35.66,16.8,15.28,17.32,15.28,42.1,0,23.21-13.75,40.36l13.41,15.59,2.38,2.95h-4.59l-.5-.52-13.08-15.25q-14.77,15.6-34.81,15.77-20.53-.18-35.65-16.81Q32.54,167.38,32.54,142.6,32.71,117.82,48.16,100.15ZM50,181.92Q64,198,83.47,198q18.68-.17,32.43-14.9l-9.16-10.74-2.38-2.94h4.58l.51.52,8.83,10.39Q130.85,164.43,131,142.6q0-22.87-13.93-39.16T83.47,87.16q-19,.18-32.94,15.42-14.6,16.45-14.6,40Q35.93,165.64,50,181.92Z"/></g></g></svg>