<svg xmlns="http://www.w3.org/2000/svg" xmlns:xlink="http://www.w3.org/1999/xlink" viewBox="0 0 841.04 841.04"><defs><style>.cls-1{fill:url(#radial-gradient);}.cls-2{fill:none;stroke:#fff;stroke-miterlimit:10;stroke-width:5px;}.cls-3{fill:#fff;}</style><radialGradient id="radial-gradient" cx="420.52" cy="420.52" r="420.52" gradientUnits="userSpaceOnUse"><stop offset="0" stop-color="#75b0b5"/><stop offset="0.64" stop-color="#009787"/><stop offset="1" stop-color="#007e7d"/></radialGradient></defs><title>board_1</title><g id="Layer_2" data-name="Layer 2"><g id="Board_Capsah" data-name="Board Capsah"><rect class="cls-1" width="841.04" height="841.04"/><circle class="cls-2" cx="420.52" cy="420.52" r="210"/><path class="cls-3" d="M316.4,399.82h1.22v2.43H303.07v39h-2.44v-39H286v-2.43H316.4Z"/><path class="cls-3" d="M345,399.82h2.43v30.5a10.23,10.23,0,0,1-2.74,6.76,12.11,12.11,0,0,1-9.44,4.14,12.68,12.68,0,0,1-8-2.62,10.21,10.21,0,0,1-4.2-8.28V429.1h2.43v1.22a8.1,8.1,0,0,0,1.83,4.93,9.72,9.72,0,0,0,7.91,3.53,10.22,10.22,0,0,0,6.09-1.94,7.88,7.88,0,0,0,3.66-6.52v-30.5Z"/><path class="cls-3" d="M358.6,441.22h-2.68l.79-1.71,17.05-39,.3-.73h1.58l.31.73,17.05,39,.79,1.71h-2.68l-.31-.73-15.95-36.41-16,36.41Z"/><path class="cls-3" d="M403.47,420.52l.06-19.42v-1.22h1.22l17-.06a12.41,12.41,0,0,1,7.91,2.68,10.17,10.17,0,0,1,1.52,15.22,12.15,12.15,0,0,1-9.43,4H405.9v19.48h-2.43v-20.7Zm18.27-1.22a10.56,10.56,0,0,0,6-1.77,7.75,7.75,0,0,0,3.78-6.69,7.83,7.83,0,0,0-2-5.18,9.76,9.76,0,0,0-7.79-3.41H405.9v17.11Z"/><path class="cls-3" d="M467.4,410.78a7.29,7.29,0,0,0-2.19-5.12,11.76,11.76,0,0,0-8.77-3.41,13,13,0,0,0-6.88,1.89c-2.72,1.7-4.08,3.92-4.08,6.64a4.15,4.15,0,0,0,.73,2.31q1.65,2.43,8.59,5.11c5.15,2,8.24,3.29,9.25,3.78q7,3.47,7,8.28a9.6,9.6,0,0,1-3.29,6.82,16,16,0,0,1-11.33,4.14,17,17,0,0,1-10.11-3c-3-2.2-4.5-4.83-4.5-7.92h2.43a7.26,7.26,0,0,0,2.5,5.18,13.91,13.91,0,0,0,9.68,3.34,15.31,15.31,0,0,0,7.8-2q4.38-2.61,4.38-6.51a4.27,4.27,0,0,0-.79-2.44q-1.65-2.43-8.59-5.17-7.73-3-9.19-3.71-7-3.42-7-8.16a9.5,9.5,0,0,1,2.86-6.76,13.91,13.91,0,0,1,10.53-4.2,14.62,14.62,0,0,1,9,2.86,9.7,9.7,0,0,1,4.39,8.1Z"/><path class="cls-3" d="M479.76,441.22h-2.68l.79-1.71,17.05-39,.31-.73h1.58l.3.73,17,39,.79,1.71h-2.67l-.31-.73-16-36.41-15.95,36.41Z"/><path class="cls-3" d="M555.08,440v1.22h-2.43V421.74H527.07v19.48h-2.43v-41.4h2.43V419.3h25.58V399.82h2.43V440Z"/></g></g></svg>